<svg xmlns="http://www.w3.org/2000/svg" width="68.812" height="60.031" viewBox="0 0 68.812 60.031">
  <defs>
    <style>
      .cls-1 {
        fill: #c8854a;
        fill-rule: evenodd;
      }
    </style>
  </defs>
  <path id="karmell_logo_footer" class="cls-1" d="M53.579,0.515A15.467,15.467,0,0,1,55.664.6c0.106,0.012.212,0.023,0.318,0.033a13.3,13.3,0,0,1,2.675.58l0.189,0.059A14.887,14.887,0,0,1,64.392,4.4c0.045,0.041.091,0.081,0.137,0.12,0.217,0.184.417,0.384,0.618,0.584l0.186,0.184a7.841,7.841,0,0,1,.647.719l0.148,0.179A14.157,14.157,0,0,1,68.9,11.667c0.026,0.1.053,0.2,0.08,0.3a14.086,14.086,0,0,1,.309,1.731l0.011,0.08c0.04,0.3.068,0.6,0.081,0.9l0,0.1a22.074,22.074,0,0,1-.123,3.636l-0.011.085a12.5,12.5,0,0,1-.455,2.128c-0.043.142-.082,0.286-0.121,0.429a24,24,0,0,1-2.589,5.984l-0.061.1c-0.444.749-.91,1.482-1.41,2.2l-0.051.073c-0.243.348-.494,0.689-0.751,1.026l-0.043.057c-0.235.309-.479,0.61-0.726,0.909l-0.059.072c-0.214.26-.43,0.52-0.649,0.776q-0.14.164-.276,0.332c-0.181.221-.367,0.436-0.554,0.652l-0.056.064c-0.224.259-.448,0.517-0.68,0.769l-0.049.054c-0.437.474-.9,0.926-1.356,1.38l-0.411.41-0.225.225-0.118.118a6.879,6.879,0,0,1-.592.562c-0.1.084-.192,0.174-0.286,0.262-0.167.156-.339,0.3-0.518,0.446-0.1.083-.2,0.17-0.291,0.258-0.152.141-.309,0.274-0.471,0.4-0.111.09-.219,0.182-0.327,0.275q-0.308.264-.619,0.525l-0.165.139c-0.167.142-.335,0.282-0.506,0.42-0.142.115-.281,0.233-0.42,0.352q-0.248.213-.5,0.418l-0.226.186c-0.306.254-.618,0.5-0.938,0.732-0.181.134-.359,0.27-0.537,0.406q-0.368.281-.746,0.547c-0.118.083-.234,0.167-0.351,0.251l-0.077.055q-0.279.2-.555,0.405c-0.292.215-.587,0.424-0.884,0.631l-0.161.112-0.423.3-0.249.174-0.415.289-0.188.131-0.305.212-0.094.066q-0.231.161-.467,0.316l-0.087.057a0.554,0.554,0,0,1-.855-0.32,0.475,0.475,0,0,1,.046-0.331,3.3,3.3,0,0,1,.811-0.633c0.176-.119.349-0.242,0.518-0.371,0.251-.19.507-0.371,0.765-0.551,0.382-.267.759-0.541,1.137-0.813l0.309-.223,0.076-.055,0.392-.28q0.727-.515,1.432-1.058l0.18-.137q0.274-.209.545-0.422t0.529-.408l0.073-.055,0.271-.206c0.54-.41,1.057-0.846,1.556-1.305,0.153-.14.309-0.275,0.467-0.408a7.043,7.043,0,0,0,.534-0.483c0.053-.053.108-0.1,0.166-0.149,0.222-.193.428-0.4,0.636-0.612l0.139-.138,0.29-.289,0.37-.368,0.286-.285,0.136-.136c0.307-.3.307-0.3,0.6-0.625,0.058-.067.12-0.13,0.183-0.192l0.072-.071,0.146-.143c0.156-.154.3-0.312,0.445-0.478l0.1-.112,0.094-.109,0.1-.122,0.053-.062,0.253-.295,0.05-.058,0.252-.293,0.251-.292,0.1-.112q0.332-.386.644-0.787l0.128-.163c0.57-.729,1.076-1.509,1.576-2.287l0.152-.236c0.649-1.007,1.253-2.034,1.8-3.1l0.05-.1a21.856,21.856,0,0,0,2.381-7.7,0.289,0.289,0,0,1,.043-0.126,14.384,14.384,0,0,0-.478-5.783c-0.048-.159-0.09-0.32-0.133-0.481a3.137,3.137,0,0,0-.158-0.431c-0.021-.064-0.042-0.127-0.061-0.191a9.958,9.958,0,0,0-.7-1.618,1.365,1.365,0,0,1-.078-0.174,1.665,1.665,0,0,0-.134-0.248l-0.121-.214C65.5,8.3,65.358,8.084,65.215,7.866l-0.1-.158c-0.153-.234-0.319-0.455-0.492-0.675-0.043-.055-0.085-0.11-0.127-0.166a7.354,7.354,0,0,0-.5-0.6c-0.065-.07-0.128-0.141-0.19-0.213-0.15-.171-0.31-0.331-0.471-0.492l-0.089-.09a6.509,6.509,0,0,0-.554-0.495c-0.085-.068-0.167-0.138-0.249-0.209a10.386,10.386,0,0,0-1.574-.991l-0.084-.047a15.311,15.311,0,0,0-5.2-1.644l-0.07-.01a13.975,13.975,0,0,0-2.083-.138H53.074a12.371,12.371,0,0,0-1.754.1l-0.127.018c-0.336.049-.665,0.111-1,0.188l-0.1.024-0.336.078-0.106.025c-0.177.042-.349,0.09-0.521,0.149-0.094.032-.19,0.057-0.286,0.083-0.343.093-.682,0.2-1.02,0.312l-0.156.051a9.5,9.5,0,0,0-.99.383l-0.261.116c-0.425.19-.837,0.4-1.242,0.624l-0.284.156c-0.48.265-.938,0.561-1.394,0.864l-0.089.059C42.59,5.72,41.786,6.286,41,6.883q-0.189.144-.381,0.286c-0.223.165-.44,0.336-0.655,0.511-0.182.148-.367,0.291-0.554,0.432q-0.221.167-.439,0.337c-0.48.375-.974,0.732-1.469,1.086l-0.291.21c-0.9.653-1.83,1.266-2.767,1.862l-0.07.045q-1.445.922-2.96,1.718c-0.2.105-.391,0.215-0.581,0.335-0.055.023-.111,0.046-0.167,0.067-0.13.062-.256,0.13-0.383,0.2a2.813,2.813,0,0,1-.316.154,0.645,0.645,0,0,0-.272.179,3.366,3.366,0,0,0-.1.4,4.122,4.122,0,0,1-.132.406,5.106,5.106,0,0,0-.169.593,0.884,0.884,0,0,1-.1.29,1.724,1.724,0,0,0-.1.337,2.1,2.1,0,0,1-.168.573,1.247,1.247,0,0,0-.087.287c-0.058.244-.131,0.483-0.207,0.722-0.109.344-.2,0.691-0.292,1.04-0.064.249-.134,0.5-0.214,0.74a3.783,3.783,0,0,0-.133.5,2.115,2.115,0,0,1-.082.308,6.452,6.452,0,0,0-.245,1.009c-0.051.28-.125,0.555-0.2,0.831q-0.068.266-.126,0.534a1.562,1.562,0,0,1-.055.186,1.8,1.8,0,0,0-.066.283,2.54,2.54,0,0,1-.1.383q-0.014.079-.027,0.158c-0.043.241-.108,0.475-0.173,0.71-0.1.378-.1,0.378-0.186,0.762a1.454,1.454,0,0,1-.063.206,3.064,3.064,0,0,0-.115.5,3.34,3.34,0,0,1-.114.45,2.321,2.321,0,0,0-.056.237c-0.034.171-.073,0.341-0.115,0.511q-0.116.482-.222,0.966l-0.044.2-0.19.865a2.113,2.113,0,0,0,.309-0.121,0.246,0.246,0,0,1,.159-0.046V29.061l0.37-.177,0.105-.05a1.392,1.392,0,0,1,.595-0.239V28.528a0.4,0.4,0,0,1,.3-0.1V28.361l0.061-.033c0.457-.253.906-0.514,1.344-0.8l0.1-.062c0.419-.274.832-0.553,1.235-0.849l0.235-.171q0.5-.362.976-0.75l0.1-.079c0.219-.177.434-0.357,0.648-0.539l0.116-.1c0.245-.207.486-0.418,0.722-0.635,0.1-.087.193-0.173,0.291-0.257s0.21-.187.315-0.28l0.249-.223q0.262-.235.521-0.474l0.252-.23,0.1-.092,0.2-.182q0.51-.466,1.017-0.936l0.066-.062c0.1-.1.205-0.194,0.3-0.295,0.078-.078.158-0.152,0.242-0.223,0.145-.126.281-0.259,0.416-0.4l0.076-.076,0.237-.238,0.313-.313L37.858,20c0.132-.132.268-0.258,0.41-0.38,0.072-.063.14-0.129,0.208-0.2l0.076-.076,0.077-.078,0.152-.154,0.067-.068c0.067-.064.135-0.124,0.2-0.184,0.158-.137.306-0.284,0.453-0.433l0.087-.087,0.273-.273,0.36-.36,0.082-.082c0.141-.141.285-0.277,0.437-0.407,0.093-.079.182-0.163,0.272-0.246,0.127-.118.255-0.235,0.384-0.35s0.287-.26.428-0.391l0.063-.058c0.1-.094.2-0.189,0.3-0.287s0.209-.2.318-0.291,0.222-.2.331-0.3c0.174-.163.349-0.325,0.527-0.484,0.088-.078.174-0.157,0.261-0.237,0.15-.137.306-0.265,0.464-0.393,0.086-.071.168-0.144,0.25-0.219,0.186-.168.383-0.321,0.582-0.474l0.169-.132c0.487-.384.98-0.762,1.49-1.116,0.121-.084.24-0.17,0.359-0.257a13.169,13.169,0,0,1,3.4-1.9,2.247,2.247,0,0,0,.22-0.1A3.518,3.518,0,0,1,51,9.8l0.087-.03c0.344-.116.695-0.206,1.048-0.29l0.084-.02a5.912,5.912,0,0,1,4.263.387c0.128,0.083.248,0.172,0.368,0.266l0.087,0.067a0.954,0.954,0,0,1,.626.781,0.471,0.471,0,0,1-.089.37,0.5,0.5,0,0,1-.406.123,1.577,1.577,0,0,1-.428-0.132,5.982,5.982,0,0,0-3.108-.291c-0.1.014-.191,0.026-0.286,0.038a6.569,6.569,0,0,0-1.045.209l-0.147.037a15.538,15.538,0,0,0-5.2,2.613c-0.091.065-.183,0.13-0.276,0.194-0.521.364-1.029,0.743-1.53,1.134l-0.181.139c-0.281.213-.553,0.435-0.825,0.66l-0.256.209c-0.186.152-.37,0.306-0.553,0.462l-0.173.146c-0.217.183-.429,0.37-0.636,0.563-0.1.09-.194,0.178-0.294,0.263S41.91,17.9,41.8,18c-0.086.084-.176,0.161-0.267,0.239-0.07.062-.135,0.126-0.2,0.193-0.107.108-.219,0.208-0.334,0.307-0.09.08-.175,0.166-0.259,0.253-0.065.063-.132,0.123-0.2,0.182-0.141.122-.277,0.248-0.412,0.376l-0.149.141-0.075.071-0.277.258c-0.178.165-.355,0.331-0.525,0.506-0.065.063-.131,0.121-0.2,0.179-0.15.129-.288,0.268-0.427,0.409l-0.143.145-0.063.064c-0.066.063-.133,0.122-0.2,0.182-0.153.133-.3,0.274-0.438,0.418l-0.082.082-0.258.259-0.341.341-0.078.078c-0.139.139-.28,0.271-0.429,0.4-0.066.057-.128,0.118-0.189,0.181-0.1.108-.217,0.206-0.33,0.3s-0.221.2-.33,0.3l-0.073.068c-0.229.216-.452,0.438-0.673,0.661-0.161.162-.326,0.315-0.5,0.463l-0.161.146c-0.116.1-.234,0.2-0.355,0.3s-0.249.208-.37,0.318c-0.149.137-.3,0.266-0.462,0.393-0.088.072-.173,0.147-0.257,0.224-0.116.105-.234,0.206-0.355,0.3l-0.092.075-0.171.137-0.074.061-0.065.053c-0.06.059-.06,0.059-0.046,0.187a2.3,2.3,0,0,0,.222.169,8.665,8.665,0,0,1,1.279,1.089l0.2,0.206,0.125,0.127c0.124,0.125.252,0.243,0.386,0.357a5.724,5.724,0,0,1,.593.617l0.09,0.1c0.233,0.265.449,0.54,0.658,0.824q0.118,0.159.238,0.316c0.4,0.535.8,1.073,1.188,1.623l0.046,0.066c0.427,0.609.825,1.238,1.225,1.866l0.053,0.083c0.4,0.627.79,1.261,1.181,1.894l0.27,0.437q0.619,1,1.225,2.007,0.847,1.407,1.741,2.785,0.24,0.368.476,0.738,0.483,0.753.979,1.5L44.3,44.335c0.23,0.344.466,0.682,0.715,1.013l0.122,0.165L45.3,45.735l0.3,0.41a13.33,13.33,0,0,0,.969,1.213c0.108,0.119.209,0.243,0.309,0.368,0.067,0.081.135,0.159,0.206,0.237,0.1,0.107.189,0.217,0.28,0.329,0.129,0.159.264,0.31,0.4,0.46,0.066,0.072.13,0.145,0.194,0.219,0.135,0.154.279,0.3,0.424,0.443l0.077,0.077c0.141,0.14.284,0.274,0.435,0.4,0.075,0.064.147,0.13,0.22,0.2,0.147,0.132.3,0.258,0.454,0.382,0.077,0.063.15,0.129,0.224,0.2a9.741,9.741,0,0,0,1.335.941l0.105,0.067q0.163,0.1.33,0.2l0.08,0.047c0.374,0.22.753,0.423,1.147,0.6L52.9,52.577a6.173,6.173,0,0,0,.707.265l0.137,0.045a8.484,8.484,0,0,0,4.21.288l0.1-.018a9.129,9.129,0,0,0,3.52-1.614,0.525,0.525,0,0,1,.36-0.11l0.108,0a0.185,0.185,0,0,1,.156.075,0.593,0.593,0,0,1,.073.405,3.963,3.963,0,0,1-.97,1l-0.052.044a9.437,9.437,0,0,1-1.72,1.155l-0.061.033a10.553,10.553,0,0,1-2.881.966l-0.081.017a9.305,9.305,0,0,1-1.989.158H54.14a10.2,10.2,0,0,1-1.334-.076L52.6,55.184a9.963,9.963,0,0,1-1.779-.342c-0.091-.027-0.182-0.052-0.275-0.075a14.086,14.086,0,0,1-3.831-1.622l-0.163-.1a13.491,13.491,0,0,1-1.569-1.071L44.887,51.9,44.7,51.75l-0.18-.146c-0.235-.189-0.458-0.389-0.679-0.594l-0.133-.123a7.977,7.977,0,0,1-.907-0.905c-0.079-.088-0.163-0.171-0.248-0.254-0.147-.145-0.285-0.293-0.418-0.45l-0.09-.1-0.259-.3L41.642,48.7c-0.183-.213-0.358-0.43-0.529-0.654-0.068-.088-0.137-0.175-0.207-0.261-0.186-.23-0.362-0.468-0.539-0.706l-0.046-.062q-0.586-.785-1.124-1.6l-0.056-.086q-0.986-1.5-1.883-3.045l-0.064-.111c-0.38-.657-0.75-1.32-1.118-1.984l-0.037-.066L35.862,39.8,35.8,39.688l-0.059-.107c-0.044-.079-0.089-0.157-0.135-0.235a0.23,0.23,0,0,1-.052-0.16H35.485l-0.1-.3H35.318l-0.036-.09a6.063,6.063,0,0,0-.294-0.561l-0.033-.059q-0.283-.506-0.583-1l-0.09-.151-0.042-.07a0.343,0.343,0,0,1-.092-0.23H34.08l-0.036-.09c-0.084-.195-0.189-0.379-0.29-0.566l-0.06-.112c-0.12-.221-0.244-0.438-0.373-0.653a0.207,0.207,0,0,1-.043-0.145H33.211l-0.039-.1a4.331,4.331,0,0,0-.237-0.45l-0.053-.092c-0.313-.539-0.652-1.062-0.994-1.582q-0.2-.3-0.39-0.608c-0.163-.259-0.334-0.512-0.51-0.763l-0.167-.239a14.148,14.148,0,0,0-1.235-1.572q-0.108-.117-0.211-0.236l-0.109-.123-0.059-.067a0.537,0.537,0,0,0-.29-0.2l-0.086,0v0.067l-0.1.041c-0.165.071-.325,0.153-0.485,0.235a0.428,0.428,0,0,1-.252.09v0.067l-0.219.11-0.062.031c-0.1.05-.2,0.1-0.3,0.141-0.16.069-.314,0.148-0.469,0.228a0.428,0.428,0,0,1-.252.09v0.067l-0.13.05-0.073.028a0.277,0.277,0,0,1-.132.022V30.46l-0.093.038c-0.176.075-.347,0.161-0.519,0.247l-0.1.05-0.1.048-0.088.044a0.319,0.319,0,0,0-.138.106,0.854,0.854,0,0,0-.035.155l-0.019.1-0.02.107c-0.07.364-.152,0.722-0.241,1.082q-0.109.441-.2,0.885a2.272,2.272,0,0,1-.12.4c-0.017.081-.032,0.162-0.046,0.244-0.038.215-.086,0.425-0.141,0.636-0.032.122-.06,0.244-0.083,0.367a1.8,1.8,0,0,1-.079.289,2.93,2.93,0,0,0-.116.506,1.693,1.693,0,0,1-.1.355c-0.018.086-.034,0.172-0.048,0.258a2.789,2.789,0,0,1-.128.5,1.571,1.571,0,0,0-.052.25c-0.04.245-.1,0.484-0.155,0.725-0.239,1-.45,2.012-0.594,3.031a3.892,3.892,0,0,1-.127.613,2.164,2.164,0,0,0-.043.568c0,0.07,0,.14,0,0.21v0.259a0.973,0.973,0,0,0,.113.351q0.022,0.063.042,0.127a1.505,1.505,0,0,0,.727.806,4.715,4.715,0,0,0,.9.266l0.123,0.025c0.222,0.043.443,0.076,0.668,0.1l0.118,0.012,0.231,0.022a0.766,0.766,0,0,1,.5.175,0.459,0.459,0,0,1,.033.3,0.574,0.574,0,0,1-.4.3c-0.105.01-.21,0.009-0.316,0.009H24.082q-1.748,0-3.493-.064c-1.216-.045-2.431-0.056-3.648-0.055H15.835c-0.467,0-.933.013-1.4,0.036l-0.389.017-0.124,0a0.381,0.381,0,0,1-.274-0.184,0.563,0.563,0,0,1,.013-0.46,1.787,1.787,0,0,1,.8-0.252c0.275-.057.546-0.127,0.817-0.2l0.2-.051a4.049,4.049,0,0,0,.785-0.306c0.054-.026.108-0.052,0.163-0.076a3.866,3.866,0,0,0,1.7-1.584l0.046-.077a8.024,8.024,0,0,0,.535-1.181c0.046-.12.1-0.239,0.147-0.358a3.683,3.683,0,0,0,.151-0.436c0.024-.079.053-0.154,0.085-0.23a8.544,8.544,0,0,0,.334-1c0.076-.275.173-0.542,0.268-0.811,0.063-.178.123-0.356,0.173-0.538,0.024-.073.049-0.146,0.074-0.22s0.039-.125.057-0.188c0.033-.114.068-0.227,0.1-0.34,0.076-.235.148-0.471,0.213-0.709s0.132-.463.2-0.693l0.03-.1,0.03-.1q0.075-.245.149-0.492l0.037-.124c0.031-.109.059-0.218,0.086-0.328,0.049-.2.1-0.39,0.163-0.584q0.138-.463.256-0.931c0.042-.165.09-0.326,0.145-0.487,0.029-.088.051-0.177,0.072-0.267,0.043-.172.095-0.341,0.144-0.511s0.1-.349.141-0.526q0.024-.088.048-0.177l0.026-.095,0.026-.095q0.082-.3.161-0.6,0.06-.224.124-0.446l0.027-.093,0.052-.179a5.19,5.19,0,0,0,.123-0.516,1.264,1.264,0,0,1,.081-0.236c0.016-.061.031-0.121,0.046-0.182,0.043-.174.091-0.346,0.137-0.519l0.05-.188c0.046-.174.093-0.348,0.142-0.521,0.079-.278.151-0.555,0.212-0.838,0.047-.216.1-0.43,0.162-0.643,0.042-.154.082-0.309,0.122-0.463l0.026-.1q0.088-.338.172-0.677h0.067l0.008-.116a5.75,5.75,0,0,1,.186-0.82l0.091-.346,0.031-.118c0.066-.254.122-0.508,0.164-0.767a0.809,0.809,0,0,1,.087-0.231c0.012-.1.012-0.1,0.022-0.2a0.439,0.439,0,0,1,.043-0.145,1.727,1.727,0,0,0,.084-0.349,2.887,2.887,0,0,1,.13-0.505,2.429,2.429,0,0,0,.074-0.324c0.021-.106.053-0.208,0.082-0.311q0.014-.071.027-0.141c0.038-.192.086-0.381,0.134-0.571,0.12-.477.22-0.951,0.293-1.438,0.013-.079.03-0.156,0.048-0.234a4.159,4.159,0,0,0,.076-0.9c0-.059,0-0.059,0-0.12a1.627,1.627,0,0,0-.371-1.12c-0.748-.753-2.14-0.674-3.112-0.7l-0.608-.018-0.131,0q-0.392-.012-0.784-0.028l-0.086,0-0.238-.013-0.091-.006-0.09-.007-0.082-.006a0.38,0.38,0,0,1-.239-0.181l-0.053-.062a0.369,0.369,0,0,1-.068-0.231l-0.006-.082a0.509,0.509,0,0,1,.261-0.324,2.917,2.917,0,0,1,.568-0.027h0.625c0.267,0,.533,0,0.8,0H21.55c0.584,0,1.162-.04,1.743-0.09,0.254-.022.509-0.038,0.764-0.054l0.253-.016q0.229-.015.458-0.025A20.069,20.069,0,0,0,29.65,12.5l0.218-.066a16.393,16.393,0,0,0,2.073-.759l0.15-.067,0.071-.032,0.147-.065A19.954,19.954,0,0,0,36.176,9.2l0.238-.175c1.109-.81,2.185-1.666,3.232-2.553,0.141-.119.283-0.235,0.426-0.351,0.1-.082.2-0.165,0.3-0.249l0.23-.194,0.065-.054c0.343-.288.7-0.559,1.06-0.821l0.231-.167c0.357-.259.719-0.51,1.086-0.756l0.108-.073a13.3,13.3,0,0,1,1.3-.827l0.093-.052a20.484,20.484,0,0,1,3.618-1.613l0.065-.021A16.824,16.824,0,0,1,51.736.617l0.1-.01C52.416,0.55,53,.527,53.579.515Zm-36.989.06h0.1a15.6,15.6,0,0,1,1.772.1L18.674,0.7A14.043,14.043,0,0,1,20.35.963L20.6,1.019q0.489,0.105.973,0.231l0.107,0.027c0.121,0.033.241,0.068,0.361,0.106l0.082,0.025a20.851,20.851,0,0,1,2.115.84l0.206,0.09a13.827,13.827,0,0,1,3,1.743c0.164,0.127.337,0.239,0.513,0.351a8.9,8.9,0,0,1,1,.735c0.145,0.124.294,0.244,0.443,0.364,0.188,0.151.368,0.307,0.546,0.47,0.085,0.076.172,0.148,0.261,0.219,0.178,0.143.345,0.3,0.511,0.453,0.1,0.1.208,0.193,0.316,0.286,0.138,0.119.27,0.243,0.4,0.368,0.15,0.142.3,0.283,0.453,0.423l0.074,0.068L32.1,7.945a0.777,0.777,0,0,1,.289.425,0.752,0.752,0,0,1-.3.439,0.622,0.622,0,0,1-.464,0,1.7,1.7,0,0,1-.4-0.284L31.079,8.4l-0.073-.062c-0.087-.073-0.176-0.145-0.264-0.217L30.477,7.9C30.189,7.667,29.9,7.434,29.6,7.209q-0.2-.152-0.4-0.307c-0.7-.547-1.413-1.061-2.149-1.555L26.986,5.3l-0.369-.245-0.124-.082a16.175,16.175,0,0,0-2.436-1.346Q23.875,3.545,23.7,3.46a12.738,12.738,0,0,0-2.154-.812L21.326,2.59l-0.554-.148-0.2-.053a14.414,14.414,0,0,0-2.762-.442l-0.074-.006-0.2-.015A1.172,1.172,0,0,1,17.348,1.9a1.367,1.367,0,0,0-.25-0.022H16.314a15.448,15.448,0,0,0-1.893.1L14.2,2a13.649,13.649,0,0,0-2.483.525L11.5,2.591q-0.2.06-.395,0.124l-0.064.021A12.108,12.108,0,0,0,7.865,4.28l-0.131.09A11.142,11.142,0,0,0,6.447,5.4C6.373,5.468,6.3,5.534,6.22,5.6a5.683,5.683,0,0,0-.6.6q-0.076.089-.155,0.175a11.027,11.027,0,0,0-1.182,1.7l-0.051.085A11.513,11.513,0,0,0,2.974,11.12q-0.026.094-.055,0.188a9.6,9.6,0,0,0-.239,1.06l-0.018.1a13.867,13.867,0,0,0-.253,2.523q0,0.071,0,.142,0,0.147,0,.294,0,0.186,0,.372,0,0.146,0,.292,0,0.1,0,.2a6.475,6.475,0,0,0,.075.915L2.5,17.377A23.87,23.87,0,0,0,5.29,25.6l0.05,0.092c0.432,0.787.9,1.55,1.4,2.3l0.05,0.075c0.454,0.678.933,1.334,1.437,1.977,0.259,0.331.511,0.668,0.76,1.006l0.184,0.25,0.049,0.067c0.2,0.27.4,0.532,0.623,0.786,0.113,0.13.222,0.264,0.332,0.4q0.348,0.422.706,0.836c0.3,0.345.3,0.345,0.415,0.5,0.241,0.315.509,0.609,0.778,0.9,0.066,0.072.13,0.145,0.194,0.219,0.108,0.124.225,0.239,0.343,0.355,0.086,0.087.167,0.178,0.247,0.271,0.066,0.076.133,0.149,0.2,0.223,0.122,0.134.24,0.27,0.357,0.408q0.218,0.255.446,0.5c0.1,0.111.2,0.224,0.3,0.338s0.188,0.21.282,0.314l0.147,0.163c0.171,0.19.345,0.377,0.52,0.563q0.2,0.211.4,0.425c0.12,0.13.241,0.256,0.367,0.38,0.08,0.081.154,0.168,0.227,0.255a2.292,2.292,0,0,0,.189.18,0.43,0.43,0,0,1,.142.345,0.5,0.5,0,0,1-.155.388,0.636,0.636,0,0,1-.451.052,2.229,2.229,0,0,1-.334-0.266l-0.2-.154c-0.4-.308-0.794-0.637-1.181-0.966l-0.172-.146c-0.216-.183-0.428-0.368-0.636-0.559-0.07-.063-0.14-0.125-0.211-0.186-0.121-.1-0.238-0.212-0.355-0.321-0.138-.128-0.277-0.253-0.42-0.376C12.1,36.992,11.888,36.8,11.69,36.6c-0.065-.063-0.131-0.122-0.2-0.181-0.164-.142-0.316-0.293-0.469-0.446l-0.145-.144c-0.156-.155-0.307-0.312-0.45-0.479-0.085-.1-0.178-0.186-0.27-0.276-0.135-.133-0.264-0.267-0.387-0.411-0.108-.12-0.225-0.232-0.34-0.345S9.2,34.077,9.086,33.949c-0.054-.061-0.11-0.118-0.168-0.175-0.1-.1-0.191-0.2-0.281-0.3s-0.179-.2-0.27-0.3c-0.128-.138-0.255-0.276-0.378-0.418-0.067-.076-0.135-0.15-0.2-0.225-0.129-.142-0.251-0.289-0.372-0.438-0.1-.115-0.194-0.228-0.293-0.34a13.811,13.811,0,0,1-.91-1.141c-0.105-.149-0.216-0.294-0.328-0.439-0.331-.434-0.628-0.9-0.932-1.349l-0.18-.269a27.834,27.834,0,0,1-1.752-2.988l-0.1-.207A20.823,20.823,0,0,1,.859,19.4C0.844,19.31.827,19.223,0.808,19.136A15.37,15.37,0,0,1,.6,16.054q0-.149,0-0.3a13.893,13.893,0,0,1,.553-4.093q0.039-.132.078-0.264c0.1-.323.2-0.642,0.316-0.957l0.027-.071a13.455,13.455,0,0,1,.976-2.027l0.046-.079A10.4,10.4,0,0,1,3.718,6.612l0.107-.123,0.28-.322,0.118-.136c0.114-.132.233-0.256,0.358-0.376,0.064-.065.123-0.132,0.182-0.2a4.872,4.872,0,0,1,.384-0.386L5.219,5l0.2-.188,0.1-.1c0.2-.187.414-0.365,0.632-0.537l0.067-.053a15.99,15.99,0,0,1,5.45-2.845l0.069-.02c0.386-.11.779-0.2,1.17-0.284l0.076-.017a15.032,15.032,0,0,1,1.64-.274l0.22-.025A15.312,15.312,0,0,1,16.59.575Zm8.8,46.039a2.3,2.3,0,0,1,.869.6L26.4,47.338c0.1,0.09.2,0.185,0.3,0.283,0.06,0.059.123,0.114,0.187,0.168,0.135,0.116.26,0.241,0.385,0.368,0.07,0.068.14,0.131,0.214,0.194,0.135,0.117.262,0.239,0.388,0.365l0.067,0.067,0.139,0.138,0.21,0.209,0.136,0.135,0.063,0.062c0.124,0.125.243,0.253,0.358,0.386,0.093,0.107.191,0.209,0.288,0.312,0.14,0.149.28,0.3,0.414,0.454,0.066,0.075.133,0.149,0.2,0.223,0.129,0.143.251,0.289,0.372,0.439,0.059,0.072.119,0.142,0.181,0.211,0.3,0.337.571,0.692,0.838,1.055l0.121,0.162,0.291,0.395,0.11,0.149a26.819,26.819,0,0,1,1.9,3c0.068,0.119.141,0.235,0.215,0.351a0.312,0.312,0,0,1,.036.206H33.88q0.1,0.174.2,0.35l0.056,0.1a1.761,1.761,0,0,1,.215.55h0.067l0.034,0.072,0.045,0.093,0.045,0.093a0.139,0.139,0,0,0,.11.109l0.018-.06a1.744,1.744,0,0,1,.182-0.407c0.017-.044.034-0.089,0.05-0.133a1.557,1.557,0,0,1,.15-0.3l0.048-.114a0.9,0.9,0,0,1,.119-0.216,1.546,1.546,0,0,0,.167-0.368h0.067l0.012-.075a0.82,0.82,0,0,1,.091-0.232l0.044-.08,0.048-.085,0.05-.089c0.175-.309.364-0.609,0.559-0.906l0.043-.065c0.244-.373.5-0.737,0.76-1.1l0.059-.082c0.193-.271.388-0.539,0.6-0.794,0.07-.085.138-0.17,0.206-0.257,0.188-.241.384-0.474,0.585-0.7l0.161-.186c0.2-.229.4-0.456,0.605-0.677,0.068-.074.134-0.148,0.2-0.223q0.184-.211.375-0.416l0.064-.071a0.577,0.577,0,0,1,1.017.01,0.724,0.724,0,0,1,.037.438l-0.034.067H40.869l-0.025.075a0.672,0.672,0,0,1-.172.23l-0.078.077-0.082.079c-0.171.166-.338,0.332-0.494,0.513-0.069.08-.142,0.157-0.214,0.234a6.359,6.359,0,0,0-.429.534c-0.047.063-.095,0.125-0.143,0.188l-0.054.07-0.1.132c-0.368.477-.711,0.971-1.045,1.472l-0.057.086c-0.275.412-.544,0.826-0.8,1.252Q37.089,56,37,56.142l-0.12.2-0.056.092a1.714,1.714,0,0,0-.2.439H36.555l-0.027.085c-0.041.119-.089,0.232-0.14,0.348H36.321l-0.026.086a2.635,2.635,0,0,1-.153.339,5.042,5.042,0,0,0-.225.5,1.994,1.994,0,0,1-.092.194,3.279,3.279,0,0,0-.16.384c-0.112.3-.234,0.6-0.358,0.894l-0.065.156-0.157.377H35.017l-0.026.062a0.475,0.475,0,0,1-.308.2,0.767,0.767,0,0,1-.445-0.046,2.291,2.291,0,0,1-.418-0.8l-0.041-.1a0.683,0.683,0,0,1-.1-0.317H33.612l-0.067-.3H33.479l-0.024-.065a2.407,2.407,0,0,0-.176-0.385,2.3,2.3,0,0,1-.169-0.371,1.324,1.324,0,0,0-.09-0.2,0.229,0.229,0,0,1-.042-0.15H32.91l-0.026-.059c-0.053-.12-0.107-0.239-0.167-0.356a0.237,0.237,0,0,1-.042-0.152H32.609l-0.038-.094a4.977,4.977,0,0,0-.259-0.492l-0.058-.1c-0.513-.893-1.1-1.743-1.688-2.585l-0.186-.266-0.29-.412L29.98,53.1c-0.186-.265-0.373-0.528-0.57-0.786q-0.087-.114-0.172-0.229c-0.2-.264-0.4-0.518-0.615-0.765-0.083-.1-0.164-0.193-0.244-0.291q-0.4-.491-0.833-0.956c-0.148-.16-0.3-0.319-0.437-0.485-0.16-.186-0.332-0.359-0.506-0.531l-0.084-.084-0.283-.279a2.747,2.747,0,0,1-.208-0.227,2.513,2.513,0,0,0-.309-0.3,2.08,2.08,0,0,1-.213-0.234,1.653,1.653,0,0,0-.182-0.168,1.518,1.518,0,0,1-.523-0.7,0.531,0.531,0,0,1,.094-0.361A0.473,0.473,0,0,1,25.386,46.614ZM59.226,33.89a1.164,1.164,0,0,1-.469.6l-0.264.262-0.137.136-0.333.33-0.067-.033L58.05,35.1l0.125-.124,0.062-.061c0.1-.1.2-0.208,0.3-0.319,0.132-.153.275-0.294,0.419-0.436l0.079-.078ZM38.762,19.135a0.317,0.317,0,0,1-.144.258l-0.063.062-0.064.064-0.135.134-0.206.206-0.131.13-0.062.063L37.9,20.11l-0.051.051a0.386,0.386,0,0,1-.187.073,4.976,4.976,0,0,1,.477-0.493C38.348,19.543,38.558,19.343,38.762,19.135ZM36.02,21.767L36.087,21.8l-0.272.273-0.077.078a4.939,4.939,0,0,1-.42.382L35.251,22.5c0.151-.154.305-0.3,0.469-0.442C35.825,21.965,35.922,21.866,36.02,21.767Zm4.882-4.7L40.969,17.1l-0.242.244-0.069.07-0.067.067-0.062.062a1.9,1.9,0,0,1-.2.157l-0.067-.033c0.153-.156.309-0.306,0.476-0.448C40.8,17.173,40.85,17.123,40.9,17.07ZM25.2,46.6h0.1a0.174,0.174,0,0,1,.15.077l-0.075-.006a0.469,0.469,0,0,0-.4.089l-0.065.083H24.851A0.315,0.315,0,0,1,25.2,46.6Zm19.108-32.63,0.067,0.033-0.3.3-0.1-.033Zm-14.445.167,0.067,0.033-0.1.1-0.054.056a0.121,0.121,0,0,1-.117.044A0.46,0.46,0,0,1,29.867,14.139ZM46.587,44.315l0.067,0.033q-0.081.1-.167,0.2H46.419A0.644,0.644,0,0,1,46.587,44.315Z" transform="translate(-0.594 -0.5)"/>
</svg>
