<svg xmlns="http://www.w3.org/2000/svg" width="45.969" height="39.969" viewBox="0 0 45.969 39.969">
  <defs>
    <style>
      .cls-1 {
        fill: #3d2314;
        fill-rule: evenodd;
      }
    </style>
  </defs>
  <path id="Layer" class="cls-1" d="M35.413,0.021A10.365,10.365,0,0,1,36.806.08L37.019,0.1a8.906,8.906,0,0,1,1.787.386l0.127,0.039a9.955,9.955,0,0,1,3.7,2.085c0.03,0.027.06,0.054,0.092,0.08,0.145,0.123.279,0.256,0.413,0.389L43.267,3.2a5.227,5.227,0,0,1,.432.479L43.8,3.8a9.42,9.42,0,0,1,1.848,3.647c0.017,0.066.035,0.133,0.054,0.2A9.359,9.359,0,0,1,45.906,8.8l0.007,0.053c0.027,0.2.045,0.4,0.054,0.6l0,0.063a14.661,14.661,0,0,1-.082,2.422l-0.007.057a8.316,8.316,0,0,1-.3,1.417c-0.029.095-.055,0.19-0.081,0.286a15.96,15.96,0,0,1-1.73,3.986l-0.041.068c-0.3.5-.608,0.987-0.942,1.462l-0.034.049c-0.162.232-.33,0.459-0.5,0.683l-0.029.038c-0.157.206-.32,0.406-0.485,0.606l-0.04.048c-0.143.174-.287,0.346-0.433,0.517q-0.094.11-.185,0.221c-0.121.147-.245,0.291-0.37,0.434l-0.037.043c-0.15.172-.3,0.344-0.454,0.512l-0.033.036c-0.292.316-.6,0.617-0.906,0.919L39,23.591l-0.15.15-0.079.078a4.612,4.612,0,0,1-.4.374c-0.066.056-.128,0.116-0.191,0.175-0.112.1-.226,0.2-0.346,0.3-0.067.055-.131,0.113-0.195,0.172-0.1.094-.207,0.182-0.315,0.269-0.074.06-.146,0.121-0.218,0.183q-0.206.176-.413,0.35l-0.11.093c-0.112.094-.224,0.188-0.338,0.28-0.095.077-.188,0.155-0.281,0.234q-0.166.142-.335,0.278l-0.151.124c-0.2.169-.413,0.33-0.627,0.488-0.121.089-.24,0.18-0.359,0.27-0.164.125-.33,0.246-0.5,0.364l-0.234.167-0.051.037q-0.186.134-.37,0.27c-0.195.143-.392,0.282-0.591,0.42l-0.107.075-0.283.2L32.2,29.05l-0.277.193-0.126.087-0.2.141-0.063.044q-0.155.107-.312,0.211l-0.058.038a0.371,0.371,0,0,1-.572-0.213,0.316,0.316,0,0,1,.031-0.22,2.2,2.2,0,0,1,.542-0.422c0.118-.079.233-0.161,0.346-0.247,0.168-.127.339-0.247,0.511-0.367,0.255-.178.507-0.36,0.76-0.541l0.207-.148,0.051-.037,0.262-.187q0.486-.343.957-0.7l0.12-.091q0.183-.139.364-0.281t0.353-.272L35.137,26l0.181-.137c0.361-.273.706-0.564,1.04-0.869,0.1-.093.207-0.183,0.312-0.272a4.71,4.71,0,0,0,.357-0.321c0.036-.035.072-0.067,0.111-0.1,0.149-.128.286-0.269,0.425-0.408l0.093-.092,0.194-.192L38.1,23.36l0.191-.19,0.091-.09c0.2-.2.2-0.2,0.4-0.416,0.039-.045.08-0.086,0.122-0.128l0.048-.047,0.1-.1c0.1-.1.2-0.208,0.3-0.319L39.407,22l0.063-.073,0.07-.081,0.036-.041,0.169-.2,0.033-.039,0.168-.2,0.168-.194,0.064-.074q0.222-.257.43-0.524l0.085-.108c0.381-.485.719-1.005,1.053-1.523l0.1-.157c0.434-.671.837-1.355,1.2-2.065l0.034-.065a14.528,14.528,0,0,0,1.591-5.131,0.193,0.193,0,0,1,.029-0.084A9.553,9.553,0,0,0,44.385,7.6c-0.032-.106-0.06-0.213-0.089-0.32a2.089,2.089,0,0,0-.106-0.287c-0.014-.042-0.028-0.085-0.041-0.127a6.622,6.622,0,0,0-.465-1.078,0.929,0.929,0,0,1-.052-0.116A1.1,1.1,0,0,0,43.543,5.5l-0.081-.143c-0.086-.151-0.179-0.3-0.275-0.442l-0.069-.105c-0.1-.156-0.213-0.3-0.329-0.449L42.7,4.252a4.9,4.9,0,0,0-.335-0.4c-0.043-.047-0.085-0.094-0.127-0.142-0.1-.114-0.207-0.221-0.315-0.328l-0.06-.06A4.333,4.333,0,0,0,41.5,3C41.442,2.95,41.387,2.9,41.332,2.856a6.942,6.942,0,0,0-1.051-.66l-0.056-.031A10.253,10.253,0,0,0,36.754,1.07l-0.047-.007A9.365,9.365,0,0,0,35.316.972h-0.24a8.289,8.289,0,0,0-1.172.067l-0.085.012c-0.224.032-.445,0.074-0.665,0.125l-0.069.016-0.224.052L32.79,1.26c-0.118.028-.233,0.06-0.348,0.1-0.063.021-.127,0.038-0.191,0.055-0.23.062-.456,0.134-0.682,0.208l-0.1.034a6.353,6.353,0,0,0-.662.255l-0.175.077c-0.284.126-.559,0.264-0.83,0.416l-0.19.1c-0.321.177-.626,0.373-0.931,0.576l-0.059.039c-0.547.364-1.084,0.741-1.607,1.138q-0.127.1-.255,0.19c-0.149.11-.294,0.224-0.438,0.341-0.121.1-.245,0.194-0.37,0.288q-0.147.111-.293,0.225c-0.321.25-.651,0.487-0.981,0.724l-0.194.14c-0.6.435-1.223,0.843-1.849,1.24l-0.047.03q-0.966.614-1.977,1.145c-0.133.07-.262,0.143-0.388,0.223-0.037.016-.074,0.031-0.112,0.044-0.087.041-.171,0.087-0.256,0.133a1.872,1.872,0,0,1-.211.1,0.431,0.431,0,0,0-.181.119,2.253,2.253,0,0,0-.067.266,2.752,2.752,0,0,1-.088.27,3.363,3.363,0,0,0-.113.4,0.588,0.588,0,0,1-.066.193,1.144,1.144,0,0,0-.069.224,1.4,1.4,0,0,1-.112.382,0.828,0.828,0,0,0-.058.191c-0.039.163-.088,0.322-0.138,0.481-0.073.229-.136,0.46-0.2,0.693-0.043.166-.09,0.33-0.143,0.493a2.5,2.5,0,0,0-.089.335,1.41,1.41,0,0,1-.055.205,4.289,4.289,0,0,0-.164.672c-0.034.187-.084,0.37-0.131,0.553q-0.045.177-.084,0.356a1.018,1.018,0,0,1-.037.124,1.2,1.2,0,0,0-.044.189,1.683,1.683,0,0,1-.067.255q-0.01.053-.018,0.105c-0.029.16-.073,0.316-0.116,0.473-0.07.252-.07,0.252-0.124,0.507a0.972,0.972,0,0,1-.042.137,2.028,2.028,0,0,0-.077.331,2.219,2.219,0,0,1-.076.3,1.552,1.552,0,0,0-.037.158c-0.022.114-.049,0.227-0.077,0.34q-0.078.321-.148,0.643l-0.03.134-0.127.576a1.417,1.417,0,0,0,.207-0.08,0.165,0.165,0,0,1,.106-0.03V19.035l0.247-.118,0.07-.034a0.932,0.932,0,0,1,.4-0.159V18.68a0.27,0.27,0,0,1,.2-0.067V18.569l0.04-.022c0.305-.169.605-0.342,0.9-0.532l0.064-.041c0.28-.182.555-0.369,0.825-0.566l0.157-.114q0.333-.241.652-0.5l0.065-.052c0.146-.118.29-0.238,0.433-0.359l0.077-.065c0.164-.138.325-0.278,0.482-0.423,0.064-.058.129-0.115,0.194-0.171s0.141-.124.21-0.187l0.166-.148q0.175-.157.348-0.315l0.168-.153,0.067-.061,0.133-.121q0.341-.31.679-0.623l0.044-.041c0.069-.064.137-0.129,0.2-0.2,0.052-.052.105-0.1,0.162-0.149,0.1-.084.188-0.173,0.278-0.264l0.05-.05,0.158-.158,0.209-.209L24.909,13c0.088-.088.179-0.172,0.274-0.253,0.048-.042.094-0.086,0.139-0.131l0.051-.051,0.051-.052,0.1-.1,0.045-.045c0.045-.043.09-0.083,0.137-0.123,0.106-.091.2-0.189,0.3-0.288l0.058-.058,0.182-.182,0.24-.24,0.055-.055c0.094-.094.19-0.185,0.292-0.271,0.062-.053.122-0.108,0.181-0.164q0.128-.118.257-0.233,0.145-.129.286-0.261l0.042-.039c0.067-.063.134-0.126,0.2-0.191s0.14-.131.213-0.194,0.148-.134.221-0.2c0.116-.109.233-0.217,0.352-0.322l0.174-.158c0.1-.091.2-0.177,0.31-0.262,0.057-.047.112-0.1,0.167-0.146,0.124-.112.256-0.214,0.389-0.316l0.113-.088c0.326-.256.655-0.507,1-0.743,0.081-.056.16-0.113,0.24-0.171a8.8,8.8,0,0,1,2.27-1.267,1.508,1.508,0,0,0,.147-0.067,2.347,2.347,0,0,1,.3-0.121l0.058-.02c0.23-.077.464-0.137,0.7-0.193l0.056-.014a3.961,3.961,0,0,1,2.848.258c0.085,0.055.166,0.115,0.246,0.177l0.058,0.044a0.635,0.635,0,0,1,.418.52,0.313,0.313,0,0,1-.059.247,0.335,0.335,0,0,1-.271.082,1.053,1.053,0,0,1-.286-0.088,4.008,4.008,0,0,0-2.076-.194l-0.191.025a4.4,4.4,0,0,0-.7.139l-0.1.025a10.393,10.393,0,0,0-3.476,1.74l-0.184.129c-0.348.242-.687,0.5-1.022,0.755l-0.121.093c-0.188.142-.37,0.29-0.551,0.439l-0.171.139c-0.125.1-.247,0.2-0.37,0.307l-0.116.1c-0.145.122-.286,0.246-0.425,0.375-0.064.06-.13,0.118-0.2,0.175s-0.146.135-.216,0.206-0.118.107-.179,0.159-0.09.084-.134,0.128c-0.072.072-.146,0.139-0.223,0.2-0.061.053-.117,0.111-0.173,0.168-0.044.042-.088,0.082-0.134,0.121-0.094.081-.185,0.165-0.275,0.25l-0.1.094-0.05.047-0.185.172c-0.119.11-.237,0.22-0.351,0.337-0.043.042-.087,0.08-0.133,0.119-0.1.086-.193,0.179-0.285,0.272l-0.1.1-0.042.042c-0.044.042-.089,0.082-0.135,0.121-0.1.088-.2,0.183-0.293,0.278l-0.055.055-0.172.172-0.228.227-0.052.052c-0.093.092-.187,0.181-0.287,0.266-0.044.038-.086,0.079-0.126,0.121-0.07.072-.145,0.137-0.221,0.2s-0.148.133-.22,0.2l-0.049.045c-0.153.144-.3,0.291-0.45,0.441-0.107.108-.218,0.21-0.334,0.309l-0.108.1c-0.077.069-.156,0.136-0.237,0.2s-0.167.139-.247,0.212c-0.1.091-.2,0.177-0.309,0.261-0.059.048-.115,0.1-0.172,0.149-0.077.07-.156,0.137-0.237,0.2l-0.061.05-0.114.091-0.049.041-0.044.035c-0.04.039-.04,0.039-0.03,0.124a1.528,1.528,0,0,0,.148.112,5.786,5.786,0,0,1,.855.725l0.136,0.138L22.178,18.9c0.083,0.083.168,0.162,0.258,0.238a3.806,3.806,0,0,1,.4.411l0.06,0.068c0.156,0.177.3,0.36,0.44,0.549l0.159,0.21c0.27,0.357.537,0.715,0.794,1.081L24.315,21.5c0.285,0.406.551,0.825,0.818,1.243l0.035,0.055c0.267,0.418.528,0.84,0.789,1.261l0.181,0.291q0.413,0.666.819,1.337,0.566,0.938,1.163,1.855,0.16,0.245.318,0.492,0.322,0.5.654,1l0.121,0.181c0.154,0.229.311,0.454,0.478,0.675l0.081,0.11,0.11,0.148,0.2,0.273a8.862,8.862,0,0,0,.647.808c0.072,0.079.139,0.162,0.207,0.245,0.044,0.054.09,0.106,0.137,0.158,0.065,0.071.126,0.144,0.187,0.219,0.086,0.106.177,0.207,0.27,0.307,0.044,0.048.087,0.1,0.13,0.146,0.09,0.1.186,0.2,0.284,0.3L32,32.643c0.094,0.093.19,0.183,0.29,0.269,0.05,0.043.1,0.087,0.147,0.131,0.1,0.088.2,0.172,0.3,0.254,0.051,0.042.1,0.086,0.149,0.131a6.516,6.516,0,0,0,.892.627L33.85,34.1c0.073,0.045.146,0.09,0.22,0.133l0.053,0.031c0.25,0.146.5,0.281,0.767,0.4L34.961,34.7a4.145,4.145,0,0,0,.472.176l0.092,0.03a5.685,5.685,0,0,0,2.813.192l0.065-.012a6.108,6.108,0,0,0,2.352-1.075,0.351,0.351,0,0,1,.24-0.073l0.072,0a0.124,0.124,0,0,1,.1.05,0.394,0.394,0,0,1,.049.27,2.64,2.64,0,0,1-.648.666l-0.035.029a6.3,6.3,0,0,1-1.149.769l-0.041.022a7.064,7.064,0,0,1-1.925.644l-0.054.011a6.238,6.238,0,0,1-1.329.105h-0.25a6.844,6.844,0,0,1-.892-0.05l-0.139-.015a6.68,6.68,0,0,1-1.188-.227c-0.061-.018-0.122-0.035-0.184-0.05a9.427,9.427,0,0,1-2.559-1.081l-0.109-.065a9.018,9.018,0,0,1-1.048-.714l-0.063-.051-0.123-.1-0.12-.1c-0.157-.126-0.306-0.259-0.453-0.4l-0.089-.082a5.311,5.311,0,0,1-.606-0.6c-0.053-.059-0.109-0.114-0.166-0.169-0.1-.1-0.19-0.2-0.279-0.3l-0.061-.07-0.173-.2-0.1-.114c-0.122-.142-0.239-0.287-0.353-0.435q-0.068-.088-0.138-0.174c-0.124-.154-0.242-0.312-0.36-0.47L26.555,31q-0.391-.523-0.751-1.068l-0.038-.057q-0.659-1-1.258-2.028l-0.043-.074c-0.254-.438-0.5-0.879-0.747-1.322L23.694,26.4l-0.118-.212-0.043-.077-0.04-.072c-0.03-.053-0.06-0.1-0.09-0.157a0.153,0.153,0,0,1-.034-0.106H23.324l-0.067-.2H23.212l-0.024-.06a4.021,4.021,0,0,0-.2-0.374l-0.022-.04q-0.189-.337-0.389-0.668l-0.06-.1-0.028-.046a0.228,0.228,0,0,1-.062-0.153H22.386l-0.024-.06c-0.056-.13-0.126-0.253-0.194-0.377l-0.04-.075q-0.12-.221-0.25-0.435a0.137,0.137,0,0,1-.029-0.1H21.8l-0.026-.064a2.891,2.891,0,0,0-.158-0.3l-0.035-.061c-0.209-.359-0.436-0.707-0.665-1.054q-0.133-.2-0.261-0.4c-0.109-.173-0.223-0.341-0.341-0.508l-0.112-.159a9.41,9.41,0,0,0-.825-1.047c-0.048-.052-0.095-0.1-0.141-0.158l-0.073-.082-0.04-.045a0.359,0.359,0,0,0-.194-0.131H18.878v0.044l-0.067.027c-0.111.047-.217,0.1-0.324,0.157a0.287,0.287,0,0,1-.168.06v0.044l-0.147.074-0.041.021c-0.067.033-.133,0.065-0.2,0.094-0.107.046-.21,0.1-0.314,0.152a0.287,0.287,0,0,1-.168.06v0.044l-0.087.033-0.049.019a0.185,0.185,0,0,1-.088.015v0.044l-0.062.026c-0.118.05-.232,0.107-0.347,0.164l-0.068.033-0.065.032-0.059.029a0.213,0.213,0,0,0-.092.071,0.56,0.56,0,0,0-.023.1L16.5,20.49l-0.013.071c-0.046.242-.1,0.481-0.161,0.72q-0.073.294-.134,0.59a1.509,1.509,0,0,1-.08.269q-0.017.081-.031,0.162c-0.026.143-.058,0.283-0.094,0.424-0.021.081-.04,0.162-0.055,0.245a1.191,1.191,0,0,1-.053.193,1.952,1.952,0,0,0-.077.337,1.125,1.125,0,0,1-.069.237c-0.012.057-.022,0.114-0.032,0.172a1.849,1.849,0,0,1-.086.331,1.043,1.043,0,0,0-.035.166c-0.026.163-.065,0.322-0.1,0.483-0.16.667-.3,1.34-0.4,2.019a2.575,2.575,0,0,1-.085.408,1.435,1.435,0,0,0-.028.378c0,0.047,0,.093,0,0.14q0,0.045,0,.09c0,0.027,0,.054,0,0.082a0.645,0.645,0,0,0,.075.234c0.009,0.028.019,0.056,0.028,0.085a1,1,0,0,0,.486.537,3.158,3.158,0,0,0,.6.178l0.082,0.016c0.148,0.028.3,0.051,0.446,0.066l0.079,0.008,0.155,0.014a0.513,0.513,0,0,1,.333.117,0.3,0.3,0,0,1,.022.2,0.383,0.383,0,0,1-.268.2c-0.07.006-.14,0.006-0.211,0.006H15.705q-1.168,0-2.334-.043c-0.812-.03-1.624-0.037-2.437-0.036H10.2c-0.312,0-.623.009-0.935,0.024L9,29.626l-0.083,0a0.255,0.255,0,0,1-.183-0.123A0.374,0.374,0,0,1,8.744,29.2a1.2,1.2,0,0,1,.537-0.168c0.184-.038.365-0.084,0.546-0.134l0.133-.034a2.718,2.718,0,0,0,.524-0.2l0.109-.051a2.579,2.579,0,0,0,1.137-1.055l0.03-.051a5.338,5.338,0,0,0,.358-0.787c0.031-.08.064-0.159,0.1-0.238a2.449,2.449,0,0,0,.1-0.291c0.016-.053.036-0.1,0.057-0.153a5.678,5.678,0,0,0,.223-0.666c0.051-.183.116-0.361,0.179-0.54,0.042-.119.082-0.237,0.116-0.358,0.016-.049.033-0.1,0.05-0.146s0.026-.083.038-0.125c0.022-.076.046-0.151,0.07-0.227,0.051-.157.1-0.314,0.143-0.473s0.088-.308.136-0.462l0.02-.066,0.02-.065q0.05-.164.1-0.327l0.025-.083c0.021-.073.039-0.146,0.057-0.219,0.033-.131.07-0.26,0.109-0.389q0.092-.308.171-0.62c0.028-.11.06-0.217,0.1-0.325,0.019-.059.034-0.118,0.048-0.177,0.029-.114.063-0.227,0.1-0.34s0.065-.233.094-0.35L14.2,19.96l0.017-.063,0.018-.063q0.055-.2.107-0.4,0.04-.149.083-0.3l0.018-.062,0.035-.119a3.465,3.465,0,0,0,.082-0.344,0.843,0.843,0,0,1,.054-0.157c0.01-.04.021-0.081,0.031-0.121,0.029-.116.06-0.23,0.091-0.345l0.034-.125c0.031-.116.062-0.232,0.095-0.347,0.053-.185.1-0.37,0.141-0.558,0.032-.144.069-0.286,0.108-0.428,0.028-.1.055-0.206,0.082-0.309l0.018-.067q0.059-.225.115-0.45h0.045l0.006-.078a3.817,3.817,0,0,1,.124-0.546l0.061-.231,0.021-.078c0.044-.169.082-0.338,0.11-0.511a0.534,0.534,0,0,1,.058-0.154c0.008-.065.008-0.065,0.015-0.131a0.292,0.292,0,0,1,.029-0.1,1.139,1.139,0,0,0,.056-0.232,1.917,1.917,0,0,1,.087-0.337,1.624,1.624,0,0,0,.05-0.216c0.014-.07.035-0.138,0.055-0.207q0.009-.047.018-0.094c0.025-.128.057-0.254,0.089-0.381,0.08-.318.147-0.634,0.2-0.958,0.009-.053.02-0.1,0.032-0.156a2.763,2.763,0,0,0,.051-0.6c0-.039,0-0.039,0-0.08a1.082,1.082,0,0,0-.248-0.746A3.092,3.092,0,0,0,14.1,9.406L13.7,9.395l-0.088,0c-0.175-.005-0.349-0.011-0.524-0.019l-0.057,0-0.159-.009-0.061,0-0.06,0-0.055,0a0.253,0.253,0,0,1-.159-0.12L12.5,9.188a0.246,0.246,0,0,1-.045-0.154l0-.055a0.339,0.339,0,0,1,.174-0.216A1.953,1.953,0,0,1,13,8.745h1.012c0.39,0,.776-0.026,1.165-0.06,0.17-.015.34-0.025,0.51-0.036l0.169-.011,0.306-.017A13.446,13.446,0,0,0,19.425,8l0.146-.044a10.981,10.981,0,0,0,1.385-.506l0.1-.044L21.1,7.389l0.1-.043a13.342,13.342,0,0,0,2.584-1.539l0.159-.116c0.741-.539,1.46-1.109,2.16-1.7,0.094-.079.189-0.157,0.285-0.234,0.067-.055.133-0.11,0.2-0.166l0.154-.129,0.043-.036c0.23-.192.465-0.373,0.709-0.547l0.154-.111c0.238-.173.481-0.34,0.725-0.5l0.072-.048a8.9,8.9,0,0,1,.866-0.551l0.062-.035A13.7,13.7,0,0,1,31.791.555l0.044-.014A11.27,11.27,0,0,1,34.182.089l0.067-.007C34.636,0.044,35.024.029,35.413,0.021ZM10.7,0.061h0.068a10.452,10.452,0,0,1,1.184.067l0.141,0.015a9.407,9.407,0,0,1,1.12.176L13.38,0.356q0.327,0.07.65,0.154L14.1,0.529c0.081,0.022.161,0.046,0.241,0.07L14.4,0.616a13.956,13.956,0,0,1,1.413.56l0.138,0.06A9.246,9.246,0,0,1,17.956,2.4c0.11,0.085.225,0.159,0.342,0.233a5.938,5.938,0,0,1,.666.49c0.1,0.083.2,0.163,0.3,0.243,0.126,0.1.246,0.2,0.364,0.313,0.057,0.051.115,0.1,0.175,0.146,0.119,0.1.23,0.2,0.341,0.3,0.069,0.065.139,0.129,0.211,0.191,0.092,0.079.181,0.162,0.269,0.245s0.2,0.189.3,0.282l0.049,0.045L21.066,4.97a0.517,0.517,0,0,1,.193.283,0.5,0.5,0,0,1-.2.293,0.416,0.416,0,0,1-.31,0,1.138,1.138,0,0,1-.268-0.189l-0.1-.084-0.049-.041c-0.058-.049-0.117-0.1-0.177-0.145l-0.176-.143c-0.193-.157-0.387-0.311-0.584-0.462q-0.133-.1-0.264-0.2c-0.466-.364-0.944-0.707-1.435-1.036l-0.048-.032L17.4,3.044l-0.083-.055a10.821,10.821,0,0,0-1.627-.9q-0.122-.053-0.242-0.11a8.531,8.531,0,0,0-1.439-.541L13.864,1.4l-0.37-.1-0.131-.036A9.656,9.656,0,0,0,11.518.975l-0.05,0-0.134-.01A0.784,0.784,0,0,1,11.206.943,0.916,0.916,0,0,0,11.039.928H10.515A10.352,10.352,0,0,0,9.251.993L9.1,1.01a9.142,9.142,0,0,0-1.659.35L7.3,1.4l-0.264.083L6.995,1.5A8.1,8.1,0,0,0,4.87,2.529l-0.088.06a7.441,7.441,0,0,0-.859.685c-0.05.046-.1,0.09-0.152,0.134a3.789,3.789,0,0,0-.4.4c-0.034.039-.069,0.078-0.1,0.117a7.346,7.346,0,0,0-.79,1.133l-0.034.056A7.656,7.656,0,0,0,1.6,7.085q-0.018.063-.037,0.125a6.382,6.382,0,0,0-.16.706L1.394,7.98A9.209,9.209,0,0,0,1.225,9.66q0,0.047,0,.094,0,0.1,0,.2,0,0.124,0,.248,0,0.1,0,.194,0,0.067,0,.135a4.3,4.3,0,0,0,.05.609l0.015,0.115A15.867,15.867,0,0,0,3.15,16.728l0.034,0.061c0.289,0.524.6,1.032,0.934,1.529l0.033,0.05c0.3,0.452.624,0.889,0.96,1.317,0.173,0.221.341,0.445,0.508,0.67l0.123,0.166,0.033,0.044c0.133,0.18.269,0.354,0.416,0.523,0.075,0.087.148,0.176,0.221,0.264q0.233,0.281.471,0.557c0.2,0.23.2,0.23,0.277,0.331,0.161,0.21.34,0.406,0.52,0.6,0.044,0.048.087,0.1,0.13,0.146,0.072,0.083.15,0.159,0.229,0.236C8.1,23.281,8.15,23.342,8.2,23.4s0.089,0.1.134,0.149c0.081,0.089.16,0.18,0.239,0.272q0.145,0.17.3,0.333c0.069,0.074.136,0.149,0.2,0.225s0.125,0.14.188,0.209l0.1,0.108c0.114,0.127.23,0.251,0.347,0.375l0.264,0.283c0.08,0.086.161,0.171,0.245,0.253,0.053,0.054.1,0.112,0.152,0.17a1.536,1.536,0,0,0,.126.12,0.286,0.286,0,0,1,.1.23,0.333,0.333,0,0,1-.1.258,0.426,0.426,0,0,1-.3.035,1.481,1.481,0,0,1-.223-0.177l-0.135-.1c-0.271-.2-0.53-0.424-0.789-0.643l-0.115-.1C8.781,25.28,8.639,25.157,8.5,25.03c-0.046-.042-0.093-0.083-0.141-0.124-0.081-.069-0.159-0.141-0.237-0.213s-0.185-.169-0.28-0.251c-0.143-.124-0.282-0.25-0.415-0.385-0.043-.042-0.088-0.081-0.134-0.12-0.109-.094-0.211-0.2-0.314-0.3l-0.1-.1c-0.1-.1-0.205-0.208-0.3-0.319C6.524,23.159,6.462,23.1,6.4,23.039c-0.09-.088-0.176-0.178-0.258-0.274-0.072-.08-0.15-0.154-0.227-0.23s-0.156-.16-0.229-0.245c-0.036-.041-0.074-0.079-0.113-0.117-0.066-.065-0.127-0.133-0.188-0.2s-0.12-.132-0.181-0.2c-0.086-.092-0.17-0.184-0.252-0.278-0.045-.051-0.09-0.1-0.136-0.15-0.086-.095-0.168-0.193-0.249-0.292-0.064-.077-0.129-0.152-0.2-0.227a9.208,9.208,0,0,1-.608-0.76c-0.07-.1-0.144-0.2-0.219-0.292-0.221-.289-0.42-0.6-0.622-0.9L2.8,18.7a18.522,18.522,0,0,1-1.171-1.99l-0.07-.138A13.842,13.842,0,0,1,.19,12.6C0.18,12.54.168,12.482,0.156,12.424a10.208,10.208,0,0,1-.14-2.053q0-.1,0-0.2a9.228,9.228,0,0,1,.37-2.726l0.052-.176C0.5,7.055.568,6.843,0.648,6.633l0.018-.047a8.951,8.951,0,0,1,.652-1.35l0.031-.053a6.925,6.925,0,0,1,.751-1.1L2.171,4l0.187-.214,0.079-.091c0.076-.088.155-0.17,0.239-0.251C2.719,3.4,2.759,3.356,2.8,3.31a3.251,3.251,0,0,1,.257-0.257L3.1,3.01l0.137-.126L3.309,2.82c0.136-.125.277-0.243,0.422-0.358l0.045-.035A10.7,10.7,0,0,1,7.417.532l0.046-.013c0.258-.073.52-0.131,0.782-0.189L8.3,0.319a10.068,10.068,0,0,1,1.1-.183l0.147-.017A10.262,10.262,0,0,1,10.7.061Zm5.877,30.666a1.54,1.54,0,0,1,.581.4l0.1,0.083c0.07,0.06.135,0.123,0.2,0.189,0.04,0.039.082,0.076,0.125,0.112,0.091,0.077.174,0.16,0.257,0.245,0.047,0.045.093,0.087,0.143,0.13,0.09,0.078.175,0.159,0.259,0.243l0.045,0.044,0.093,0.092,0.141,0.14,0.091,0.09,0.042,0.041c0.083,0.083.162,0.169,0.239,0.257,0.062,0.071.127,0.139,0.193,0.208,0.094,0.1.187,0.2,0.276,0.3,0.044,0.05.089,0.1,0.134,0.148,0.086,0.095.168,0.193,0.249,0.292,0.04,0.048.08,0.094,0.121,0.141,0.2,0.224.381,0.461,0.56,0.7L20.5,34.695l0.195,0.263,0.074,0.1a17.853,17.853,0,0,1,1.27,2c0.045,0.079.094,0.157,0.144,0.233a0.207,0.207,0,0,1,.024.137h0.045l0.131,0.233,0.038,0.066a1.17,1.17,0,0,1,.144.367h0.045l0.023,0.048,0.03,0.062,0.03,0.062a0.093,0.093,0,0,0,.073.073l0.012-.04a1.158,1.158,0,0,1,.122-0.271q0.017-.044.034-0.089a1.038,1.038,0,0,1,.1-0.2l0.032-.076a0.6,0.6,0,0,1,.08-0.144,1.031,1.031,0,0,0,.112-0.245H23.3l0.008-.05a0.545,0.545,0,0,1,.061-0.154l0.029-.053,0.032-.056,0.033-.059c0.117-.206.243-0.406,0.373-0.6l0.028-.044c0.163-.248.335-0.491,0.508-0.733l0.039-.055c0.129-.181.259-0.359,0.4-0.529,0.047-.056.093-0.114,0.138-0.171,0.126-.161.257-0.316,0.391-0.469l0.108-.124c0.132-.153.266-0.3,0.4-0.451q0.068-.074.134-0.149,0.123-.14.25-0.277l0.043-.047a0.386,0.386,0,0,1,.68.007,0.481,0.481,0,0,1,.024.291l-0.022.044H26.921l-0.017.05a0.448,0.448,0,0,1-.115.153l-0.052.051-0.055.053c-0.114.111-.226,0.221-0.33,0.342-0.046.053-.095,0.1-0.143,0.156a4.237,4.237,0,0,0-.287.355l-0.1.125-0.036.047-0.069.088c-0.246.318-.475,0.647-0.7,0.981l-0.038.057c-0.184.274-.363,0.55-0.532,0.834l-0.116.193-0.08.133-0.037.061a1.142,1.142,0,0,0-.136.292H24.039l-0.018.057c-0.028.079-.059,0.155-0.094,0.231H23.883l-0.018.057a1.761,1.761,0,0,1-.1.226,3.376,3.376,0,0,0-.151.334,1.286,1.286,0,0,1-.062.129,2.185,2.185,0,0,0-.107.256c-0.075.2-.157,0.4-0.239,0.6l-0.043.1-0.1.251H23.011l-0.017.041a0.317,0.317,0,0,1-.206.136,0.514,0.514,0,0,1-.3-0.031,1.523,1.523,0,0,1-.279-0.535l-0.027-.066a0.454,0.454,0,0,1-.066-0.211H22.073l-0.045-.2H21.984l-0.016-.043a1.6,1.6,0,0,0-.118-0.256,1.533,1.533,0,0,1-.113-0.247,0.876,0.876,0,0,0-.06-0.13,0.152,0.152,0,0,1-.028-0.1H21.6l-0.017-.039c-0.036-.08-0.071-0.159-0.111-0.237a0.158,0.158,0,0,1-.028-0.1H21.4l-0.025-.063a3.3,3.3,0,0,0-.173-0.328l-0.039-.068c-0.343-.595-0.732-1.161-1.128-1.722l-0.125-.177-0.194-.275-0.073-.1c-0.125-.176-0.25-0.352-0.381-0.523l-0.115-.153c-0.131-.176-0.266-0.345-0.411-0.51-0.056-.063-0.11-0.128-0.163-0.194q-0.268-.327-0.556-0.636c-0.1-.106-0.2-0.213-0.292-0.323s-0.222-.239-0.338-0.354L17.333,32.3l-0.189-.186a1.8,1.8,0,0,1-.139-0.151,1.673,1.673,0,0,0-.207-0.2,1.4,1.4,0,0,1-.143-0.155,1.092,1.092,0,0,0-.121-0.112,1.013,1.013,0,0,1-.349-0.464,0.353,0.353,0,0,1,.063-0.241A0.317,0.317,0,0,1,16.577,30.727Zm22.609-8.475a0.775,0.775,0,0,1-.313.4l-0.177.175-0.092.091-0.223.22-0.045-.022,0.063-.062,0.084-.082,0.041-.04c0.07-.069.137-0.139,0.2-0.213,0.088-.1.184-0.2,0.28-0.29l0.053-.052ZM25.513,12.424a0.211,0.211,0,0,1-.1.172l-0.042.041-0.043.043-0.09.089-0.138.137-0.088.087-0.041.042-0.039.038-0.034.034a0.257,0.257,0,0,1-.125.049,3.326,3.326,0,0,1,.318-0.329C25.237,12.7,25.377,12.562,25.513,12.424Zm-1.832,1.753L23.726,14.2l-0.181.182-0.052.052a3.272,3.272,0,0,1-.281.255l-0.045-.022c0.1-.1.2-0.2,0.314-0.294C23.551,14.309,23.616,14.243,23.681,14.176Zm3.262-3.128,0.045,0.022-0.162.162-0.046.046-0.045.045-0.041.041a1.3,1.3,0,0,1-.13.1l-0.045-.022c0.1-.1.207-0.2,0.318-0.3C26.874,11.117,26.909,11.083,26.943,11.048ZM16.456,30.72h0.066a0.117,0.117,0,0,1,.1.051l-0.05,0a0.315,0.315,0,0,0-.264.059l-0.043.056H16.22A0.21,0.21,0,0,1,16.456,30.72ZM29.222,8.985l0.045,0.022-0.2.2L29,9.185ZM19.571,9.1l0.045,0.022-0.064.067-0.036.037a0.081,0.081,0,0,1-.078.029A0.306,0.306,0,0,1,19.571,9.1Zm11.17,20.1,0.045,0.022q-0.054.068-.112,0.133H30.629A0.429,0.429,0,0,1,30.741,29.2Z" transform="translate(0 -0.031)"/>
</svg>
