<svg xmlns="http://www.w3.org/2000/svg" width="68.531" height="60" viewBox="0 0 68.531 60">
  <defs>
    <style>
      .cls-1 {
        fill: #825751;
        fill-rule: evenodd;
      }
    </style>
  </defs>
  <path id="Layer" class="cls-1" d="M744.017,276.633a15.307,15.307,0,0,1,2.076.088l0.318,0.033a13.207,13.207,0,0,1,2.664.579l0.188,0.059a14.809,14.809,0,0,1,5.522,3.129c0.045,0.041.091,0.081,0.137,0.12,0.216,0.184.415,0.384,0.615,0.585l0.186,0.184a7.858,7.858,0,0,1,.645.719l0.147,0.179a14.163,14.163,0,0,1,2.755,5.474c0.026,0.1.053,0.2,0.08,0.3a14.081,14.081,0,0,1,.308,1.73c0,0.027.007,0.053,0.01,0.08,0.04,0.3.068,0.595,0.081,0.9l0,0.1a22.165,22.165,0,0,1-.122,3.634c0,0.028-.007.057-0.011,0.086a12.563,12.563,0,0,1-.453,2.127c-0.043.142-.082,0.285-0.121,0.429a24.015,24.015,0,0,1-2.579,5.983l-0.06.1c-0.443.748-.907,1.482-1.405,2.195l-0.051.073c-0.242.348-.492,0.688-0.748,1.026l-0.043.056c-0.234.309-.477,0.61-0.723,0.909l-0.059.072q-0.32.392-.646,0.776c-0.093.11-.184,0.221-0.275,0.332-0.18.221-.366,0.436-0.552,0.652l-0.055.064c-0.223.259-.446,0.517-0.677,0.768l-0.049.054c-0.436.474-.894,0.926-1.351,1.38q-0.206.2-.409,0.409l-0.224.225-0.117.118a6.913,6.913,0,0,1-.589.562c-0.1.084-.191,0.173-0.285,0.262-0.167.156-.338,0.3-0.516,0.445-0.1.083-.2,0.17-0.29,0.258-0.151.141-.308,0.274-0.469,0.4-0.11.09-.218,0.182-0.326,0.275-0.2.176-.41,0.35-0.616,0.524l-0.164.14c-0.167.141-.334,0.282-0.5,0.42-0.141.115-.28,0.233-0.418,0.352-0.165.141-.331,0.281-0.5,0.418-0.076.061-.151,0.123-0.226,0.186-0.3.254-.615,0.5-0.934,0.732-0.179.134-.357,0.27-0.535,0.406q-0.366.28-.743,0.546l-0.35.251-0.076.055q-0.277.2-.552,0.405c-0.29.215-.585,0.424-0.88,0.63l-0.16.113-0.422.295-0.248.173-0.413.289-0.187.131-0.3.213-0.094.065c-0.153.108-.308,0.213-0.464,0.317-0.029.018-.057,0.037-0.087,0.057a0.552,0.552,0,0,1-.852-0.321,0.478,0.478,0,0,1,.046-0.33,3.262,3.262,0,0,1,.808-0.633c0.175-.119.347-0.242,0.516-0.371,0.25-.189.5-0.37,0.762-0.55,0.38-.267.755-0.541,1.132-0.813l0.308-.223,0.076-.054q0.2-.141.391-0.281,0.723-.514,1.425-1.058l0.179-.137q0.273-.208.543-0.422c0.174-.137.35-0.273,0.526-0.408l0.073-.055,0.27-.206c0.538-.41,1.052-0.846,1.549-1.305,0.152-.139.308-0.274,0.466-0.408a7.138,7.138,0,0,0,.532-0.482c0.053-.053.108-0.1,0.165-0.149,0.222-.193.426-0.4,0.634-0.612l0.138-.138,0.288-.289,0.369-.368,0.285-.285c0.045-.046.09-0.091,0.136-0.136,0.3-.3.3-0.3,0.594-0.625,0.058-.067.119-0.13,0.182-0.192l0.072-.071,0.146-.143c0.155-.153.3-0.311,0.443-0.478l0.1-.111,0.093-.109,0.105-.122c0.017-.021.035-0.041,0.053-0.062l0.252-.295,0.05-.058c0.084-.1.168-0.195,0.251-0.293s0.167-.194.25-0.292l0.1-.111q0.332-.386.641-0.788l0.127-.162c0.568-.729,1.072-1.509,1.57-2.287,0.05-.079.1-0.157,0.152-0.236,0.646-1.006,1.247-2.033,1.792-3.1l0.05-.1a21.884,21.884,0,0,0,2.371-7.7,0.3,0.3,0,0,1,.043-0.126A14.42,14.42,0,0,0,757.39,288c-0.047-.159-0.09-0.32-0.132-0.481a3.179,3.179,0,0,0-.158-0.431c-0.021-.063-0.041-0.127-0.061-0.191a10.038,10.038,0,0,0-.693-1.618,1.3,1.3,0,0,1-.078-0.174,1.7,1.7,0,0,0-.134-0.248l-0.12-.214c-0.129-.226-0.266-0.446-0.409-0.663-0.035-.052-0.069-0.105-0.1-0.158-0.153-.234-0.318-0.455-0.49-0.675-0.043-.054-0.085-0.11-0.127-0.165a7.3,7.3,0,0,0-.5-0.6c-0.065-.07-0.127-0.141-0.189-0.213-0.149-.171-0.309-0.331-0.469-0.492-0.03-.029-0.059-0.059-0.089-0.09a6.464,6.464,0,0,0-.552-0.494c-0.085-.068-0.166-0.138-0.248-0.209a10.369,10.369,0,0,0-1.567-.99l-0.084-.047a15.179,15.179,0,0,0-5.174-1.643l-0.069-.011a13.969,13.969,0,0,0-2.074-.138h-0.358a12.268,12.268,0,0,0-1.746.1l-0.127.018c-0.334.048-.662,0.11-0.991,0.188l-0.1.024c-0.111.025-.223,0.051-0.334,0.078l-0.105.025a5.225,5.225,0,0,0-.52.149c-0.094.031-.189,0.057-0.284,0.083-0.342.093-.68,0.2-1.016,0.312l-0.156.051a9.436,9.436,0,0,0-.986.383l-0.26.116c-0.423.19-.833,0.4-1.237,0.624-0.094.053-.188,0.1-0.283,0.156-0.478.266-.934,0.561-1.389,0.865l-0.088.059c-0.816.546-1.616,1.111-2.395,1.708q-0.189.145-.379,0.286c-0.223.165-.439,0.336-0.653,0.511-0.181.148-.365,0.291-0.552,0.432-0.146.112-.292,0.224-0.437,0.338-0.478.374-.969,0.731-1.462,1.086-0.1.069-.194,0.139-0.29,0.21-0.894.653-1.822,1.265-2.755,1.861l-0.07.045c-0.96.614-1.94,1.186-2.948,1.718-0.2.105-.39,0.215-0.579,0.335-0.055.024-.11,0.046-0.166,0.067-0.13.061-.255,0.13-0.381,0.2a2.683,2.683,0,0,1-.314.154,0.657,0.657,0,0,0-.271.179,3.439,3.439,0,0,0-.1.4,3.84,3.84,0,0,1-.131.406,5.074,5.074,0,0,0-.169.593,0.921,0.921,0,0,1-.1.29,1.714,1.714,0,0,0-.1.336,2.081,2.081,0,0,1-.168.574,1.276,1.276,0,0,0-.086.286c-0.058.244-.131,0.483-0.206,0.722-0.108.344-.2,0.691-0.291,1.04-0.064.25-.134,0.5-0.214,0.74a3.8,3.8,0,0,0-.132.5,2.181,2.181,0,0,1-.081.308,6.508,6.508,0,0,0-.245,1.009c-0.051.281-.125,0.555-0.2,0.831-0.045.178-.087,0.355-0.126,0.534a1.471,1.471,0,0,1-.055.186,1.844,1.844,0,0,0-.066.283,2.507,2.507,0,0,1-.1.383c-0.01.053-.019,0.106-0.027,0.158-0.043.241-.108,0.475-0.173,0.71-0.1.378-.1,0.378-0.185,0.762a1.4,1.4,0,0,1-.063.206,3.114,3.114,0,0,0-.114.5,3.485,3.485,0,0,1-.113.45,2.129,2.129,0,0,0-.056.236c-0.033.172-.073,0.341-0.114,0.511-0.077.321-.15,0.643-0.221,0.966-0.014.067-.029,0.134-0.044,0.2l-0.189.864a2.09,2.09,0,0,0,.308-0.12,0.245,0.245,0,0,1,.158-0.046v-0.067l0.369-.177,0.105-.05a1.381,1.381,0,0,1,.592-0.239v-0.067a0.406,0.406,0,0,1,.3-0.1v-0.067l0.06-.033c0.455-.253.9-0.514,1.338-0.8,0.048-.03.048-0.03,0.1-0.062,0.417-.273.828-0.553,1.229-0.849l0.234-.171q0.5-.361.972-0.749l0.1-.079c0.218-.176.432-0.357,0.645-0.539l0.116-.1q0.366-.31.718-0.635c0.1-.088.192-0.173,0.289-0.257s0.21-.187.314-0.281l0.248-.222q0.261-.236.519-0.474l0.251-.23,0.1-.092,0.2-.181q0.509-.466,1.013-0.936l0.066-.062c0.1-.1.205-0.194,0.3-0.294,0.077-.079.157-0.152,0.241-0.223,0.144-.126.279-0.26,0.414-0.4l0.075-.076,0.236-.237c0.1-.105.208-0.209,0.311-0.314l0.071-.071c0.132-.132.267-0.258,0.408-0.38,0.072-.063.14-0.129,0.207-0.2l0.076-.076,0.076-.078,0.152-.154,0.067-.068c0.066-.064.134-0.124,0.2-0.184,0.158-.137.3-0.284,0.451-0.433l0.087-.087,0.271-.273,0.358-.36,0.082-.082c0.14-.141.283-0.277,0.435-0.407,0.092-.079.181-0.162,0.27-0.245,0.127-.118.254-0.235,0.383-0.35s0.285-.26.427-0.391l0.062-.058c0.1-.094.2-0.189,0.3-0.288s0.208-.2.317-0.29,0.221-.2.33-0.305c0.173-.163.347-0.325,0.525-0.484,0.087-.078.173-0.157,0.259-0.236,0.15-.137.3-0.266,0.463-0.393,0.086-.071.168-0.144,0.249-0.219,0.185-.169.382-0.321,0.58-0.474l0.168-.132c0.485-.385.976-0.762,1.484-1.116,0.121-.084.239-0.17,0.358-0.257a13.08,13.08,0,0,1,3.384-1.9,1.949,1.949,0,0,0,.218-0.1,3.554,3.554,0,0,1,.443-0.182l0.087-.03c0.343-.116.692-0.206,1.043-0.29l0.084-.021a5.87,5.87,0,0,1,4.245.387c0.128,0.083.248,0.172,0.367,0.267l0.087,0.066a0.952,0.952,0,0,1,.623.781,0.471,0.471,0,0,1-.088.37,0.5,0.5,0,0,1-.4.123,1.528,1.528,0,0,1-.425-0.131,5.933,5.933,0,0,0-3.095-.291c-0.1.014-.19,0.026-0.286,0.038a6.583,6.583,0,0,0-1.04.209l-0.147.037a15.45,15.45,0,0,0-5.181,2.613l-0.275.194c-0.519.363-1.025,0.743-1.523,1.133l-0.181.139c-0.279.213-.55,0.435-0.821,0.66l-0.255.209c-0.186.151-.369,0.306-0.551,0.461l-0.173.147c-0.216.183-.427,0.369-0.634,0.562-0.1.09-.193,0.178-0.293,0.264s-0.217.2-.322,0.309c-0.086.084-.176,0.161-0.267,0.239-0.069.062-.134,0.126-0.2,0.193-0.106.108-.217,0.208-0.333,0.307-0.09.08-.174,0.166-0.258,0.252-0.065.064-.131,0.123-0.2,0.182-0.14.122-.276,0.248-0.41,0.376l-0.149.141-0.075.071-0.277.258c-0.178.165-.353,0.331-0.522,0.5-0.065.063-.13,0.121-0.2,0.179-0.149.13-.287,0.268-0.426,0.409-0.047.049-.095,0.1-0.142,0.145l-0.063.064c-0.065.063-.132,0.122-0.2,0.181-0.153.133-.295,0.274-0.437,0.418l-0.082.082-0.257.259-0.339.341-0.077.078c-0.138.139-.279,0.272-0.428,0.4-0.066.057-.127,0.118-0.188,0.181-0.1.108-.216,0.206-0.329,0.3s-0.221.2-.329,0.3l-0.072.068c-0.228.215-.45,0.437-0.67,0.661-0.161.162-.325,0.315-0.5,0.463l-0.161.146c-0.115.1-.232,0.2-0.353,0.3s-0.249.208-.369,0.318c-0.149.137-.3,0.266-0.46,0.393-0.087.072-.172,0.147-0.256,0.223-0.115.105-.232,0.206-0.353,0.3l-0.092.075-0.17.137-0.074.061-0.064.052c-0.06.059-.06,0.059-0.046,0.187a2.265,2.265,0,0,0,.221.169,8.579,8.579,0,0,1,1.273,1.088l0.2,0.206c0.041,0.043.083,0.085,0.125,0.128,0.123,0.125.25,0.242,0.383,0.357a5.731,5.731,0,0,1,.591.616l0.09,0.1c0.232,0.265.446,0.54,0.655,0.824,0.078,0.105.158,0.211,0.237,0.316,0.4,0.535.8,1.073,1.183,1.622l0.046,0.066c0.425,0.609.822,1.238,1.219,1.865l0.053,0.083c0.4,0.627.787,1.26,1.176,1.893l0.269,0.437q0.617,1,1.22,2.006,0.843,1.407,1.734,2.785,0.239,0.368.473,0.738,0.481,0.751.976,1.5l0.18,0.272c0.229,0.344.465,0.682,0.712,1.013l0.122,0.165,0.164,0.222,0.3,0.41a13.262,13.262,0,0,0,.965,1.213c0.108,0.118.208,0.242,0.308,0.367,0.067,0.081.135,0.159,0.205,0.237,0.1,0.107.188,0.217,0.279,0.329,0.129,0.159.263,0.31,0.4,0.46,0.066,0.072.129,0.145,0.193,0.219,0.135,0.154.278,0.3,0.423,0.443l0.076,0.077c0.14,0.14.283,0.274,0.433,0.4,0.074,0.064.147,0.13,0.219,0.2,0.147,0.132.3,0.258,0.452,0.382,0.077,0.063.15,0.129,0.222,0.2a9.731,9.731,0,0,0,1.33.94l0.105,0.067c0.109,0.068.218,0.135,0.328,0.2l0.079,0.047c0.373,0.22.75,0.422,1.143,0.6l0.106,0.049a5.909,5.909,0,0,0,.7.265l0.136,0.045a8.41,8.41,0,0,0,4.193.288l0.1-.018a9.072,9.072,0,0,0,3.506-1.614,0.524,0.524,0,0,1,.358-0.11l0.107,0a0.185,0.185,0,0,1,.156.075,0.59,0.59,0,0,1,.072.405,3.963,3.963,0,0,1-.965,1l-0.052.044a9.39,9.39,0,0,1-1.713,1.155l-0.061.033a10.5,10.5,0,0,1-2.87.966l-0.08.017a9.259,9.259,0,0,1-1.981.158h-0.373a10,10,0,0,1-1.329-.075l-0.207-.023a9.964,9.964,0,0,1-1.771-.341c-0.091-.027-0.182-0.052-0.274-0.076a13.988,13.988,0,0,1-3.815-1.622l-0.163-.1a13.569,13.569,0,0,1-1.562-1.071l-0.094-.077q-0.092-.073-0.183-0.15c-0.059-.049-0.119-0.1-0.179-0.145-0.234-.189-0.456-0.389-0.676-0.594l-0.132-.123a7.909,7.909,0,0,1-.9-0.905c-0.079-.088-0.163-0.171-0.247-0.254-0.146-.145-0.284-0.293-0.416-0.45l-0.09-.1-0.259-.3-0.146-.171c-0.183-.213-0.357-0.43-0.527-0.653-0.067-.089-0.136-0.176-0.206-0.262-0.186-.23-0.361-0.468-0.537-0.7l-0.046-.062q-0.584-.786-1.12-1.6c-0.018-.029-0.037-0.057-0.056-0.086q-0.983-1.5-1.875-3.045l-0.064-.11c-0.378-.658-0.747-1.32-1.113-1.984-0.013-.022-0.025-0.044-0.037-0.066l-0.176-.319-0.063-.115-0.059-.108c-0.044-.079-0.089-0.157-0.135-0.235a0.232,0.232,0,0,1-.051-0.16H726l-0.1-.3h-0.067c-0.011-.03-0.023-0.06-0.035-0.091-0.084-.194-0.19-0.376-0.293-0.561l-0.033-.059q-0.284-.506-0.581-1l-0.09-.151-0.041-.07a0.34,0.34,0,0,1-.092-0.23H724.6q-0.017-.043-0.036-0.09c-0.083-.195-0.187-0.379-0.288-0.565l-0.06-.112c-0.12-.221-0.243-0.438-0.372-0.653a0.2,0.2,0,0,1-.043-0.145h-0.066l-0.039-.1a4.478,4.478,0,0,0-.236-0.45c-0.018-.03-0.035-0.061-0.053-0.092-0.312-.539-0.649-1.061-0.99-1.582q-0.2-.3-0.389-0.607c-0.163-.259-0.332-0.512-0.508-0.763l-0.166-.239a14.157,14.157,0,0,0-1.23-1.571c-0.072-.078-0.142-0.157-0.211-0.237l-0.108-.123-0.059-.067a0.535,0.535,0,0,0-.288-0.2l-0.086,0v0.066l-0.1.042c-0.165.07-.323,0.153-0.483,0.235a0.425,0.425,0,0,1-.25.09v0.066l-0.219.111-0.061.031c-0.1.05-.2,0.1-0.3,0.14-0.16.069-.313,0.148-0.467,0.228a0.426,0.426,0,0,1-.251.09V306.4l-0.129.05-0.073.028a0.269,0.269,0,0,1-.131.022v0.067l-0.093.038c-0.176.076-.346,0.162-0.517,0.247l-0.1.05-0.1.048-0.088.043a0.316,0.316,0,0,0-.137.107,0.876,0.876,0,0,0-.035.154l-0.018.1c-0.007.036-.013,0.071-0.02,0.108-0.069.363-.152,0.722-0.24,1.081q-0.108.441-.2,0.885a2.261,2.261,0,0,1-.12.4c-0.017.081-.032,0.162-0.046,0.244-0.038.214-.085,0.425-0.14,0.636-0.031.122-.059,0.243-0.082,0.367a1.792,1.792,0,0,1-.08.289,3,3,0,0,0-.115.507,1.7,1.7,0,0,1-.1.355c-0.018.086-.033,0.171-0.048,0.258a2.748,2.748,0,0,1-.128.5,1.632,1.632,0,0,0-.052.25c-0.039.244-.1,0.484-0.154,0.725-0.239,1-.448,2.011-0.592,3.03a3.992,3.992,0,0,1-.126.613,2.155,2.155,0,0,0-.043.567c0,0.07,0,.14,0,0.211v0.135c0,0.041,0,.081,0,0.123a0.971,0.971,0,0,0,.113.351c0.014,0.042.028,0.084,0.041,0.127a1.5,1.5,0,0,0,.725.8,4.692,4.692,0,0,0,.9.267l0.122,0.024c0.221,0.043.441,0.076,0.665,0.1l0.118,0.013c0.076,0.007.153,0.015,0.23,0.021a0.755,0.755,0,0,1,.5.176,0.457,0.457,0,0,1,.034.3,0.571,0.571,0,0,1-.4.3c-0.1.01-.209,0.009-0.314,0.009h-1.618q-1.74,0-3.478-.064c-1.211-.045-2.421-0.055-3.633-0.054h-1.1q-0.7,0-1.394.035c-0.129.007-.258,0.012-0.388,0.017l-0.123,0a0.382,0.382,0,0,1-.272-0.184,0.563,0.563,0,0,1,.013-0.46,1.772,1.772,0,0,1,.8-0.252c0.274-.057.544-0.127,0.814-0.2l0.2-.052a4,4,0,0,0,.782-0.305l0.162-.077a3.849,3.849,0,0,0,1.694-1.584l0.046-.076a8.082,8.082,0,0,0,.533-1.181c0.046-.12.1-0.239,0.146-0.358a3.865,3.865,0,0,0,.15-0.436,2.446,2.446,0,0,1,.085-0.23,8.54,8.54,0,0,0,.333-1c0.076-.274.172-0.542,0.267-0.81,0.062-.179.122-0.356,0.172-0.538,0.024-.074.049-0.147,0.074-0.22s0.038-.125.056-0.187c0.033-.115.068-0.228,0.105-0.341,0.075-.235.147-0.471,0.212-0.709s0.132-.463.2-0.693l0.03-.1,0.03-.1c0.05-.163.1-0.327,0.148-0.491,0.019-.061.019-0.061,0.037-0.124,0.032-.109.059-0.219,0.086-0.329,0.049-.2.105-0.39,0.162-0.583,0.092-.309.176-0.619,0.255-0.931,0.042-.165.09-0.326,0.145-0.487,0.029-.088.05-0.176,0.072-0.266,0.043-.172.094-0.341,0.144-0.511s0.1-.349.14-0.526l0.048-.177c0.008-.031.017-0.062,0.026-0.094s0.017-.063.026-0.1c0.054-.2.108-0.4,0.16-0.595,0.04-.149.081-0.3,0.124-0.446,0.008-.031.017-0.061,0.026-0.093,0.018-.059.035-0.119,0.053-0.178,0.049-.171.09-0.341,0.122-0.517a1.266,1.266,0,0,1,.081-0.236c0.016-.06.031-0.12,0.046-0.181,0.042-.174.09-0.346,0.136-0.519,0.017-.062.034-0.125,0.05-0.188,0.046-.174.092-0.347,0.142-0.521,0.079-.277.15-0.555,0.211-0.837,0.046-.217.1-0.43,0.161-0.643,0.042-.154.082-0.309,0.122-0.463,0.008-.033.017-0.066,0.026-0.1,0.059-.226.116-0.451,0.172-0.677h0.066c0-.038.006-0.077,0.008-0.116a5.787,5.787,0,0,1,.186-0.82c0.031-.115.061-0.23,0.091-0.346,0.01-.039.021-0.077,0.031-0.117,0.066-.255.122-0.508,0.163-0.767a0.816,0.816,0,0,1,.087-0.231c0.013-.1.013-0.1,0.022-0.2a0.456,0.456,0,0,1,.043-0.145,1.739,1.739,0,0,0,.083-0.349,2.933,2.933,0,0,1,.129-0.506,2.376,2.376,0,0,0,.074-0.324c0.021-.105.053-0.207,0.082-0.311q0.015-.07.027-0.141c0.038-.192.086-0.381,0.134-0.571,0.119-.477.219-0.952,0.292-1.438,0.013-.079.03-0.156,0.048-0.234a4.21,4.21,0,0,0,.076-0.9c0-.059,0-0.059,0-0.12a1.629,1.629,0,0,0-.37-1.12c-0.745-.752-2.13-0.674-3.1-0.7l-0.606-.018-0.131,0q-0.39-.01-0.78-0.028l-0.086,0c-0.079,0-.158-0.008-0.236-0.014l-0.091,0-0.09-.007-0.081-.007a0.377,0.377,0,0,1-.238-0.18c-0.017-.021-0.035-0.041-0.053-0.062a0.375,0.375,0,0,1-.068-0.232c0-.04,0-0.04,0-0.082a0.509,0.509,0,0,1,.259-0.324,2.9,2.9,0,0,1,.566-0.026h0.171l0.452,0c0.266,0,.531,0,0.8,0h0.088c0.581,0,1.157-.04,1.736-0.09,0.253-.022.507-0.038,0.761-0.054l0.252-.017c0.152-.009.3-0.018,0.456-0.025a19.937,19.937,0,0,0,4.861-.929c0.072-.023.144-0.045,0.217-0.066a16.454,16.454,0,0,0,2.064-.759l0.15-.067,0.071-.032,0.147-.064a19.874,19.874,0,0,0,3.851-2.311l0.237-.175c1.1-.809,2.176-1.665,3.219-2.552,0.14-.119.282-0.235,0.424-0.351,0.1-.082.2-0.165,0.3-0.249l0.229-.193,0.064-.055c0.342-.288.694-0.559,1.056-0.821l0.23-.167q0.533-.388,1.081-0.756l0.107-.072a13.352,13.352,0,0,1,1.291-.827l0.093-.052a20.448,20.448,0,0,1,3.6-1.613l0.065-.021a16.711,16.711,0,0,1,3.5-.678l0.1-.01C742.859,276.667,743.437,276.645,744.017,276.633Zm-36.836.059h0.1a15.53,15.53,0,0,1,1.764.1l0.21,0.023a13.83,13.83,0,0,1,1.669.264c0.083,0.02.167,0.038,0.25,0.056q0.487,0.1.969,0.231l0.107,0.027c0.12,0.033.24,0.069,0.359,0.106l0.083,0.025a20.853,20.853,0,0,1,2.106.841l0.205,0.09A13.707,13.707,0,0,1,718,280.2c0.164,0.127.336,0.238,0.511,0.35a8.861,8.861,0,0,1,.992.735c0.145,0.124.293,0.244,0.442,0.364,0.187,0.151.366,0.307,0.543,0.47,0.084,0.077.171,0.148,0.26,0.219,0.177,0.143.343,0.3,0.508,0.453,0.1,0.1.207,0.193,0.315,0.286,0.137,0.12.269,0.243,0.4,0.368q0.224,0.213.451,0.423l0.073,0.068,0.139,0.126a0.782,0.782,0,0,1,.288.426,0.754,0.754,0,0,1-.3.439,0.62,0.62,0,0,1-.462,0,1.691,1.691,0,0,1-.4-0.283l-0.151-.127-0.073-.062c-0.087-.073-0.175-0.145-0.263-0.217l-0.263-.215c-0.287-.235-0.576-0.468-0.871-0.693-0.132-.1-0.263-0.2-0.394-0.308-0.694-.546-1.407-1.061-2.14-1.554l-0.072-.049-0.367-.244-0.123-.082a16.137,16.137,0,0,0-2.426-1.346c-0.121-.053-0.241-0.108-0.361-0.165a12.733,12.733,0,0,0-2.145-.812l-0.214-.058-0.551-.148-0.195-.053a14.3,14.3,0,0,0-2.751-.442l-0.074,0-0.2-.015a1.174,1.174,0,0,1-.192-0.028,1.389,1.389,0,0,0-.249-0.022h-0.781a15.419,15.419,0,0,0-1.885.1l-0.219.026a13.564,13.564,0,0,0-2.472.525l-0.215.066c-0.131.04-.262,0.082-0.393,0.124l-0.064.021a12.044,12.044,0,0,0-3.166,1.544l-0.131.09a11.2,11.2,0,0,0-1.281,1.028c-0.074.069-.149,0.136-0.226,0.2a5.609,5.609,0,0,0-.593.6c-0.051.059-.1,0.117-0.155,0.175a11.07,11.07,0,0,0-1.177,1.7l-0.051.085a11.542,11.542,0,0,0-1.257,2.958c-0.017.062-.035,0.125-0.054,0.187a9.6,9.6,0,0,0-.238,1.06l-0.018.095a13.879,13.879,0,0,0-.252,2.523c0,0.047,0,.094,0,0.142v0.294c0,0.124,0,.248,0,0.372V292.2c0,0.067,0,.134,0,0.2a6.5,6.5,0,0,0,.075.914c0.007,0.058.015,0.116,0.022,0.174a23.928,23.928,0,0,0,2.775,8.218l0.05,0.092c0.431,0.787.9,1.549,1.392,2.3l0.05,0.075c0.453,0.678.93,1.334,1.431,1.976,0.258,0.331.509,0.668,0.757,1.007l0.183,0.249,0.049,0.067c0.2,0.27.4,0.532,0.62,0.786,0.112,0.13.221,0.263,0.33,0.4q0.346,0.421.7,0.836c0.3,0.344.3,0.344,0.412,0.5,0.241,0.315.508,0.609,0.775,0.9,0.066,0.072.13,0.145,0.193,0.219,0.108,0.124.224,0.239,0.342,0.355,0.086,0.087.166,0.178,0.246,0.271,0.065,0.075.132,0.149,0.2,0.223,0.121,0.134.239,0.27,0.356,0.408,0.144,0.17.292,0.336,0.444,0.5,0.1,0.11.2,0.223,0.3,0.337s0.187,0.21.281,0.314l0.146,0.163c0.17,0.19.343,0.377,0.518,0.563q0.2,0.212.393,0.425c0.119,0.129.24,0.256,0.366,0.379,0.08,0.081.153,0.168,0.226,0.255,0.06,0.065.123,0.121,0.189,0.18a0.429,0.429,0,0,1,.141.344,0.5,0.5,0,0,1-.154.388,0.626,0.626,0,0,1-.449.052,2.183,2.183,0,0,1-.333-0.266l-0.2-.154c-0.4-.308-0.791-0.637-1.177-0.966l-0.171-.145c-0.214-.183-0.426-0.369-0.634-0.559-0.069-.063-0.139-0.125-0.21-0.187-0.12-.1-0.237-0.212-0.354-0.32q-0.205-.192-0.418-0.377c-0.213-.185-0.42-0.375-0.617-0.578-0.065-.063-0.131-0.122-0.2-0.18-0.162-.142-0.315-0.294-0.467-0.447l-0.144-.144c-0.156-.155-0.306-0.312-0.449-0.479-0.085-.1-0.177-0.186-0.269-0.276-0.134-.133-0.263-0.267-0.385-0.411-0.108-.12-0.224-0.232-0.338-0.345s-0.232-.24-0.341-0.368c-0.054-.061-0.11-0.118-0.168-0.175-0.1-.1-0.19-0.2-0.28-0.3s-0.179-.2-0.269-0.295c-0.128-.138-0.254-0.276-0.377-0.418-0.066-.076-0.134-0.151-0.2-0.225-0.128-.143-0.25-0.289-0.37-0.438-0.1-.116-0.193-0.228-0.292-0.341a13.6,13.6,0,0,1-.906-1.14c-0.105-.15-0.216-0.3-0.327-0.439-0.329-.434-0.625-0.895-0.927-1.348l-0.18-.269a27.847,27.847,0,0,1-1.745-2.987l-0.105-.207a20.851,20.851,0,0,1-2.045-5.962c-0.015-.088-0.033-0.174-0.051-0.262a15.414,15.414,0,0,1-.209-3.081c0-.1,0-0.2,0-0.3a13.942,13.942,0,0,1,.551-4.092l0.078-.264c0.094-.323.195-0.642,0.314-0.956,0.009-.024.018-0.047,0.027-0.072a13.56,13.56,0,0,1,.972-2.026c0.016-.026.031-0.052,0.046-0.079a10.417,10.417,0,0,1,1.12-1.653l0.106-.123,0.279-.322c0.04-.045.079-0.091,0.118-0.136,0.113-.132.232-0.256,0.357-0.376,0.063-.066.122-0.132,0.181-0.2a4.65,4.65,0,0,1,.383-0.386l0.07-.066,0.2-.188,0.1-.1c0.2-.187.413-0.365,0.63-0.537l0.067-.053a15.9,15.9,0,0,1,5.427-2.844l0.069-.02c0.385-.11.775-0.2,1.166-0.284l0.075-.017a14.836,14.836,0,0,1,1.633-.274l0.219-.026A15.4,15.4,0,0,1,707.181,276.692Zm8.76,46.029a2.3,2.3,0,0,1,.866.6c0.048,0.042.1,0.084,0.144,0.125,0.1,0.09.2,0.185,0.3,0.283,0.06,0.059.122,0.114,0.186,0.168,0.134,0.116.259,0.241,0.383,0.369,0.069,0.068.139,0.131,0.213,0.194,0.134,0.117.261,0.239,0.386,0.365l0.067,0.067,0.138,0.138,0.209,0.21,0.136,0.135,0.062,0.062c0.124,0.124.241,0.253,0.356,0.386,0.093,0.106.19,0.209,0.287,0.312,0.14,0.149.279,0.3,0.412,0.453,0.065,0.076.133,0.149,0.2,0.223,0.128,0.142.25,0.289,0.371,0.439,0.059,0.071.118,0.141,0.18,0.211,0.3,0.337.568,0.692,0.835,1.055l0.12,0.162q0.145,0.2.29,0.394c0.037,0.05.073,0.1,0.11,0.149a26.8,26.8,0,0,1,1.893,3c0.068,0.119.141,0.235,0.215,0.35a0.316,0.316,0,0,1,.036.206H724.4l0.2,0.35c0.019,0.032.037,0.065,0.056,0.1a1.77,1.77,0,0,1,.215.55h0.066c0.012,0.024.023,0.047,0.034,0.072l0.045,0.092c0.015,0.031.03,0.061,0.045,0.093a0.139,0.139,0,0,0,.109.109c0.007-.019.013-0.039,0.019-0.059a1.726,1.726,0,0,1,.181-0.407c0.018-.044.034-0.088,0.05-0.133a1.557,1.557,0,0,1,.15-0.3l0.048-.114a0.882,0.882,0,0,1,.119-0.217,1.585,1.585,0,0,0,.166-0.368h0.067l0.012-.075a0.834,0.834,0,0,1,.09-0.231l0.044-.08c0.015-.028.031-0.056,0.047-0.084,0.025-.044.025-0.044,0.049-0.089,0.174-.31.363-0.609,0.557-0.906l0.042-.066c0.244-.373.5-0.737,0.757-1.1,0.019-.027.039-0.054,0.058-0.082,0.193-.271.387-0.539,0.6-0.794,0.07-.084.138-0.17,0.205-0.257,0.188-.241.383-0.474,0.583-0.7l0.161-.186c0.2-.229.4-0.456,0.6-0.677,0.067-.074.134-0.148,0.2-0.223,0.123-.141.247-0.279,0.374-0.416l0.064-.071a0.573,0.573,0,0,1,1.013.01,0.724,0.724,0,0,1,.036.437l-0.033.067h-0.067l-0.025.075a0.666,0.666,0,0,1-.171.23l-0.078.076-0.082.079c-0.17.166-.337,0.332-0.492,0.513-0.069.08-.141,0.157-0.213,0.234a6.454,6.454,0,0,0-.428.534c-0.047.063-.094,0.125-0.142,0.187l-0.055.071-0.1.132c-0.367.476-.708,0.971-1.04,1.472l-0.057.085c-0.274.412-.542,0.826-0.792,1.252l-0.174.29-0.12.2-0.055.092a1.718,1.718,0,0,0-.2.439h-0.066c-0.009.028-.018,0.056-0.028,0.085-0.041.119-.088,0.232-0.139,0.348H726.83c-0.013.042-.013,0.042-0.026,0.086a2.5,2.5,0,0,1-.153.338,5.348,5.348,0,0,0-.224.5,1.913,1.913,0,0,1-.092.194,3.307,3.307,0,0,0-.16.384c-0.111.3-.233,0.6-0.356,0.894-0.022.052-.043,0.105-0.065,0.157l-0.156.376h-0.066l-0.026.062a0.472,0.472,0,0,1-.307.2,0.758,0.758,0,0,1-.444-0.045,2.3,2.3,0,0,1-.416-0.8c-0.013-.033-0.027-0.065-0.041-0.1a0.69,0.69,0,0,1-.1-0.317h-0.067c-0.022-.1-0.044-0.2-0.066-0.3H724c-0.008-.021-0.016-0.042-0.025-0.064a2.344,2.344,0,0,0-.175-0.385,2.254,2.254,0,0,1-.168-0.371,1.253,1.253,0,0,0-.09-0.195,0.23,0.23,0,0,1-.042-0.15h-0.066c-0.009-.019-0.017-0.039-0.026-0.059-0.053-.12-0.106-0.238-0.166-0.355a0.242,0.242,0,0,1-.041-0.152h-0.067l-0.038-.095a4.787,4.787,0,0,0-.257-0.492l-0.059-.1c-0.511-.893-1.09-1.743-1.681-2.585l-0.186-.265-0.288-.412-0.109-.156c-0.186-.265-0.372-0.528-0.568-0.786l-0.171-.229c-0.194-.264-0.4-0.517-0.612-0.765-0.083-.095-0.164-0.192-0.243-0.29q-0.4-.492-0.83-0.956c-0.147-.159-0.294-0.319-0.435-0.484-0.16-.186-0.33-0.359-0.5-0.531l-0.084-.084-0.282-.279a2.772,2.772,0,0,1-.207-0.226,2.464,2.464,0,0,0-.308-0.3,2.123,2.123,0,0,1-.212-0.233,1.609,1.609,0,0,0-.181-0.169,1.518,1.518,0,0,1-.521-0.695,0.538,0.538,0,0,1,.094-0.362A0.471,0.471,0,0,1,715.941,322.721Zm33.7-12.72a1.166,1.166,0,0,1-.467.6l-0.264.263-0.136.136-0.332.33-0.066-.034,0.093-.092,0.125-.124,0.062-.061c0.1-.1.2-0.208,0.3-0.319,0.132-.153.274-0.294,0.417-0.436l0.079-.078Zm-20.38-14.752a0.314,0.314,0,0,1-.143.257l-0.063.063-0.064.064-0.135.134c-0.069.068-.137,0.137-0.205,0.206l-0.131.13-0.062.063-0.059.058-0.051.05a0.376,0.376,0,0,1-.186.074,4.918,4.918,0,0,1,.475-0.493C728.849,295.657,729.058,295.456,729.261,295.249Zm-2.73,2.631,0.066,0.033-0.27.273-0.077.077a4.6,4.6,0,0,1-.419.382l-0.066-.033c0.15-.154.3-0.3,0.467-0.441C726.336,298.078,726.434,297.979,726.531,297.88Zm4.862-4.7,0.066,0.034-0.241.243-0.069.07-0.067.067-0.061.062a1.835,1.835,0,0,1-.195.157l-0.066-.033c0.152-.157.308-0.307,0.474-0.448C731.289,293.287,731.341,293.237,731.393,293.184ZM715.76,322.711h0.1a0.174,0.174,0,0,1,.15.077l-0.074-.006a0.47,0.47,0,0,0-.394.089l-0.065.083h-0.066A0.313,0.313,0,0,1,715.76,322.711Zm19.029-32.624,0.067,0.034-0.3.3-0.1-.033Zm-14.385.167,0.066,0.033-0.1.1c-0.017.019-.035,0.037-0.053,0.056a0.121,0.121,0,0,1-.117.044A0.456,0.456,0,0,1,720.4,290.254Zm16.65,30.17,0.066,0.033c-0.054.068-.109,0.135-0.166,0.2h-0.067A0.645,0.645,0,0,1,737.054,320.424Z" transform="translate(-691.25 -276.625)"/>
</svg>
